<svg width="14" height="13" viewBox="0 0 14 13" fill="none" xmlns="http://www.w3.org/2000/svg">
<path d="M12.8558 10.2627L10.8249 8.25413C10.4204 7.85571 9.75051 7.86782 9.3319 8.28193L8.30871 9.29352C8.24407 9.25829 8.17716 9.22149 8.10681 9.18244C7.46068 8.82841 6.57635 8.34316 5.64577 7.42225C4.71243 6.49939 4.22127 5.62354 3.86217 4.98417C3.82427 4.91644 3.78796 4.85113 3.75211 4.78911L4.43882 4.11105L4.77643 3.77678C5.19568 3.36207 5.20724 2.6998 4.80367 2.30023L2.77275 0.291432C2.36918 -0.107585 1.69898 -0.0954797 1.27973 0.319229L0.707347 0.8885L0.722989 0.903855C0.531062 1.14603 0.370682 1.42534 0.251332 1.72655C0.141314 2.01326 0.0728169 2.28685 0.0414966 2.56101C-0.226672 4.75949 0.789256 6.76873 3.54636 9.49523C7.3575 13.2638 10.4288 12.9791 10.5613 12.9652C10.8499 12.9311 11.1264 12.8629 11.4075 12.755C11.7094 12.6383 11.9917 12.4799 12.2364 12.2906L12.2489 12.3015L12.8288 11.74C13.2472 11.3254 13.2592 10.6629 12.8558 10.2627Z" fill="#522A6E"/>
</svg>
