<svg width="22" height="13" viewBox="0 0 22 13" fill="none" xmlns="http://www.w3.org/2000/svg">
<path d="M21.0001 12.9491L18.0622 12.9881C18.0622 12.9881 17.4344 13.118 16.5932 12.5201C15.4883 11.7402 14.4588 9.71245 13.6427 9.97242C12.8266 10.2454 12.8517 12.0652 12.8517 12.0652C12.8517 12.0652 12.8517 12.4551 12.6759 12.6631C12.475 12.8971 12.0733 12.9491 12.0733 12.9491H10.7675C10.7675 12.9491 7.86724 13.131 5.30595 10.3754C2.51867 7.37273 0.057824 1.40645 0.057824 1.40645C0.057824 1.40645 -0.0802846 1.01649 0.0703793 0.821517C0.246154 0.613542 0.710701 0.600544 0.710701 0.600544L3.84953 0.574547C3.84953 0.574547 4.15086 0.626541 4.35175 0.782522C4.54008 0.925505 4.64052 1.17248 4.64052 1.17248C4.64052 1.17248 5.14273 2.49832 5.82072 3.70717C7.13903 6.05989 7.74168 6.56683 8.19368 6.31986C8.84655 5.9559 8.64567 2.99226 8.64567 2.99226C8.64567 2.99226 8.65822 1.92639 8.31923 1.44544C8.05557 1.06849 7.56591 0.9645 7.33991 0.938504C7.16414 0.912507 7.45291 0.483558 7.82957 0.30158C8.39456 0.0156138 9.39899 -0.0103831 10.5792 0.00261539C11.4957 0.0156138 11.7594 0.0676076 12.1235 0.158597C13.2032 0.431564 12.8391 1.47144 12.8391 3.98014C12.8391 4.78604 12.701 5.91691 13.266 6.29386C13.5046 6.44985 14.0947 6.31986 15.5637 3.73317C16.2667 2.51132 16.7815 1.05549 16.7815 1.05549C16.7815 1.05549 16.8945 0.795521 17.0703 0.691533C17.2461 0.574547 17.4972 0.613542 17.4972 0.613542L20.8118 0.587545C20.8118 0.587545 21.8036 0.457561 21.9669 0.925505C22.1301 1.41945 21.5902 2.55031 20.2468 4.42209C18.0245 7.48972 17.7859 7.20375 19.619 8.97154C21.3768 10.6613 21.7409 11.4932 21.8036 11.5842C22.5319 12.8451 21.0001 12.9491 21.0001 12.9491Z" fill="#522A6F"/>
</svg>
