<svg width="35" height="36" viewBox="0 0 35 36" fill="none" xmlns="http://www.w3.org/2000/svg">
<g clip-path="url(#clip0)">
<path d="M5.83333 25.0719C5.78083 25.0719 5.72833 25.0661 5.67438 25.0544C2.33333 24.3063 0 21.3809 0 17.9407C0 14.0878 3.00271 10.9246 6.79 10.6665C7.79917 5.62652 12.2981 1.89902 17.5 1.89902C21.5848 1.89902 25.3473 4.20027 27.2023 7.79651C31.6094 8.25881 35 11.9936 35 16.4823C35 20.1107 32.814 23.3073 29.4321 24.6286C29.0588 24.7759 28.6344 24.5907 28.4885 24.2144C28.3413 23.8396 28.5265 23.4167 28.9027 23.2709C31.7202 22.1698 33.5417 19.5055 33.5417 16.4823C33.5417 12.6221 30.5331 9.4313 26.6919 9.21839C26.4221 9.2038 26.1844 9.04193 26.0706 8.79839C24.5277 5.49381 21.1648 3.35735 17.5 3.35735C12.8115 3.35735 8.78354 6.85006 8.13021 11.4803C8.07917 11.839 7.77146 12.1073 7.40833 12.1073C4.07458 12.1073 1.45833 14.7236 1.45833 17.9407C1.45833 20.694 3.32208 23.0332 5.99229 23.6311C6.38604 23.7186 6.63104 24.1094 6.545 24.5017C6.46917 24.8415 6.16729 25.0719 5.83333 25.0719Z" fill="white"/>
<path d="M17.5001 28.149C15.489 28.149 13.8542 26.5128 13.8542 24.5032C13.8542 22.4936 15.489 20.8574 17.5001 20.8574C19.5111 20.8574 21.1459 22.4936 21.1459 24.5032C21.1459 26.5128 19.5111 28.149 17.5001 28.149ZM17.5001 22.3157C16.294 22.3157 15.3126 23.2971 15.3126 24.5032C15.3126 25.7092 16.294 26.6907 17.5001 26.6907C18.7061 26.6907 19.6876 25.7092 19.6876 24.5032C19.6876 23.2971 18.7061 22.3157 17.5001 22.3157Z" fill="white"/>
<path d="M18.6637 33.9824H16.3362C15.5837 33.9824 14.961 33.418 14.8866 32.6684L14.6999 30.8149C14.258 30.618 13.8366 30.373 13.4385 30.0813L11.7366 30.8499C11.0468 31.159 10.2476 30.8994 9.87284 30.2505L8.71054 28.2365C8.33284 27.5861 8.50929 26.7636 9.12034 26.3232L10.6224 25.244C10.5947 25.018 10.5728 24.7657 10.5728 24.5032C10.5728 24.2407 10.5947 23.9884 10.6224 23.7638L9.12034 22.6847C8.50929 22.2442 8.33284 21.4203 8.71054 20.7699L9.87284 18.7574C10.2491 18.1055 11.0526 17.8488 11.7351 18.1565L13.4385 18.9265C13.8366 18.6349 14.258 18.3899 14.6999 18.193L14.8866 16.3394C14.961 15.5913 15.5851 15.0269 16.3362 15.0269H18.6637C19.4162 15.0269 20.0389 15.5913 20.1133 16.3409L20.2999 18.1944C20.7418 18.3913 21.1647 18.6378 21.5614 18.928L23.2633 18.1594C23.953 17.8488 24.7522 18.1084 25.127 18.7588L26.2893 20.7728C26.667 21.4232 26.4905 22.2457 25.8795 22.6861L24.3774 23.7653C24.4066 23.9913 24.427 24.2422 24.427 24.5047C24.427 24.7672 24.4051 25.0194 24.3774 25.244L25.8795 26.3232C26.4905 26.7636 26.667 27.5876 26.2893 28.238L25.127 30.2505C24.7493 30.9009 23.9458 31.1561 23.2647 30.8513L21.5614 30.0813C21.1633 30.373 20.7418 30.618 20.2999 30.8149L20.1133 32.6699C20.0389 33.418 19.4147 33.9824 18.6637 33.9824ZM13.5405 28.5063C13.7083 28.5063 13.8745 28.5647 14.0087 28.6769C14.503 29.0911 15.0499 29.4076 15.6318 29.6205C15.8943 29.7167 16.0795 29.9544 16.1058 30.233L16.3362 32.524H18.6637L18.8926 30.233C18.9203 29.9544 19.1055 29.7167 19.3666 29.6205C19.9485 29.4076 20.4953 29.0897 20.9897 28.6769C21.2026 28.4976 21.5016 28.4553 21.7583 28.5719L23.8626 29.5228L25.0264 27.5088L23.1626 26.1701C22.9366 26.0067 22.8228 25.7267 22.871 25.4511C22.9249 25.1434 22.9672 24.8299 22.9672 24.5061C22.9672 24.1824 22.9249 23.8688 22.871 23.5611C22.8228 23.2855 22.9366 23.0069 23.1626 22.8422L25.0264 21.5034L23.8641 19.4894L21.7583 20.4388C21.5001 20.5555 21.2026 20.5132 20.9897 20.3338C20.4968 19.9197 19.9499 19.6032 19.3666 19.3903C19.1041 19.294 18.9189 19.0563 18.8926 18.7778L18.6637 16.4824H16.3362L16.1072 18.7734C16.0795 19.0519 15.8943 19.2897 15.6333 19.3859C15.0514 19.5988 14.5045 19.9167 14.0101 20.3294C13.7972 20.5088 13.4983 20.5511 13.2416 20.4344L11.1372 19.4836L9.972 21.499L11.8358 22.8378C12.0618 23.0011 12.1755 23.2811 12.1274 23.5567C12.0735 23.8659 12.0312 24.178 12.0312 24.5032C12.0312 24.8284 12.0735 25.1405 12.1274 25.4482C12.1755 25.7238 12.0618 26.0024 11.8358 26.1672L9.972 27.5074L11.1343 29.5213L13.2401 28.5719C13.3378 28.5267 13.4399 28.5063 13.5405 28.5063Z" fill="white"/>
</g>
<defs>
<clipPath id="clip0">
<rect width="35" height="35" fill="white" transform="translate(0 0.440674)"/>
</clipPath>
</defs>
</svg>
