<svg width="40" height="40" viewBox="0 0 40 40" fill="none" xmlns="http://www.w3.org/2000/svg">
<path d="M8.88445 29.3687H8.12195C7.0882 29.3687 6.24695 30.21 6.24695 31.2437V31.8687C6.24695 32.2144 6.52633 32.4937 6.87195 32.4937H19.3682C19.7138 32.4937 19.9932 32.2144 19.9932 31.8687V31.2437C19.9932 30.21 19.152 29.3687 18.1182 29.3687H17.3557L17.0438 28.1212H24.3632C25.397 28.1212 26.2382 27.28 26.2382 26.2462V9.38126C26.2382 8.34751 25.397 7.50626 24.3632 7.50626H1.87695C0.843203 7.50626 0.00195312 8.34751 0.00195312 9.38126V26.2462C0.00195312 27.28 0.843203 28.1212 1.87695 28.1212H9.19633L8.88445 29.3687ZM8.12195 30.6187H18.1182C18.4632 30.6187 18.7432 30.8987 18.7432 31.2437H7.49695C7.49695 30.8987 7.77695 30.6187 8.12195 30.6187ZM16.0682 29.3687H10.172L10.4838 28.1212H15.7563L16.0682 29.3687ZM1.87695 8.75626H24.3638C24.7088 8.75626 24.9888 9.03626 24.9888 9.38126V24.3713H1.25195V9.38126C1.25195 9.03626 1.53195 8.75626 1.87695 8.75626ZM1.25195 26.2462V25.6212H13.1326C12.7876 25.6212 12.5113 25.9006 12.5113 26.2462C12.5113 26.5919 12.7938 26.8712 13.1395 26.8712C13.4845 26.8712 13.7645 26.5919 13.7645 26.2462C13.7645 25.9006 13.4845 25.6212 13.1395 25.6212H24.9888V26.2462C24.9888 26.5912 24.7088 26.8712 24.3638 26.8712H13.1388H1.87695C1.53195 26.8712 1.25195 26.5912 1.25195 26.2462Z" fill="white"/>
<path d="M38.1232 7.50626H29.3726C28.3388 7.50626 27.4976 8.34751 27.4976 9.38126V30.6187C27.4976 31.6525 28.3388 32.4937 29.3726 32.4937H38.1232C39.1569 32.4937 39.9982 31.6525 39.9982 30.6187V9.38126C39.9982 8.34688 39.1569 7.50626 38.1232 7.50626ZM28.7476 11.2538H38.7482V11.8775H28.7476V11.2538ZM29.3726 8.75626H38.1232C38.4682 8.75626 38.7482 9.03626 38.7482 9.38126V10.0038H28.7476V9.38126C28.7476 9.03626 29.0276 8.75626 29.3726 8.75626ZM38.1232 31.2437H29.3726C29.0276 31.2437 28.7476 30.9637 28.7476 30.6187V13.1275H38.7482V30.6187C38.7482 30.9637 38.4682 31.2437 38.1232 31.2437Z" fill="white"/>
<path d="M33.748 20.6275C34.7818 20.6275 35.623 19.7863 35.623 18.7525C35.623 17.7188 34.7818 16.8775 33.748 16.8775C32.7143 16.8775 31.873 17.7188 31.873 18.7525C31.873 19.7863 32.7143 20.6275 33.748 20.6275ZM33.748 18.1275C34.093 18.1275 34.373 18.4075 34.373 18.7525C34.373 19.0975 34.093 19.3775 33.748 19.3775C33.403 19.3775 33.123 19.0975 33.123 18.7525C33.123 18.4075 33.403 18.1275 33.748 18.1275Z" fill="white"/>
<path d="M36.248 24.3788H31.248C30.9024 24.3788 30.623 24.6581 30.623 25.0038C30.623 25.3494 30.9024 25.6288 31.248 25.6288H36.248C36.5937 25.6288 36.873 25.3494 36.873 25.0038C36.873 24.6581 36.5937 24.3788 36.248 24.3788Z" fill="white"/>
<path d="M36.248 26.2538H31.248C30.9024 26.2538 30.623 26.5331 30.623 26.8788C30.623 27.2244 30.9024 27.5038 31.248 27.5038H36.248C36.5937 27.5038 36.873 27.2244 36.873 26.8788C36.873 26.5331 36.5937 26.2538 36.248 26.2538Z" fill="white"/>
<path d="M36.248 28.1288H31.248C30.9024 28.1288 30.623 28.4081 30.623 28.7538C30.623 29.0994 30.9024 29.3788 31.248 29.3788H36.248C36.5937 29.3788 36.873 29.0994 36.873 28.7538C36.873 28.4081 36.5937 28.1288 36.248 28.1288Z" fill="white"/>
</svg>
