<svg width="30" height="31" viewBox="0 0 30 31" fill="none" xmlns="http://www.w3.org/2000/svg">
<path d="M3.95508 3.60938C4.19777 3.60938 4.39453 3.41268 4.39453 3.16992C4.39453 2.92717 4.19777 2.73047 3.95508 2.73047C3.71238 2.73047 3.51562 2.92717 3.51562 3.16992C3.51562 3.41268 3.71238 3.60938 3.95508 3.60938ZM5.71289 3.60938C5.95559 3.60938 6.15234 3.41268 6.15234 3.16992C6.15234 2.92717 5.95559 2.73047 5.71289 2.73047C5.4702 2.73047 5.27344 2.92717 5.27344 3.16992C5.27344 3.41268 5.4702 3.60938 5.71289 3.60938ZM1.75781 3.16992C1.75781 3.41268 1.95457 3.60938 2.19727 3.60938C2.43996 3.60938 2.63672 3.41268 2.63672 3.16992C2.63672 2.92717 2.43996 2.73047 2.19727 2.73047C1.95457 2.73047 1.75781 2.92717 1.75781 3.16992ZM10.5132 23.2447C10.3371 23.4117 10.3296 23.6898 10.4965 23.866C11.6842 25.1197 13.0857 26.1039 14.6622 26.7916C14.7696 26.8385 14.8847 26.8618 14.9999 26.8618C15.1152 26.8618 15.2304 26.8384 15.3379 26.7916C19.9909 24.7619 22.9975 20.1712 22.9975 15.0961V12.9684C22.9975 12.7414 22.9089 12.528 22.748 12.3679C22.587 12.2075 22.3731 12.1192 22.1453 12.1192H22.1419C20.5705 12.1277 19.2327 10.9038 19.0985 9.3385C19.0613 8.90385 18.6897 8.56336 18.2525 8.56336H11.7471C11.3034 8.56336 10.9397 8.89611 10.9012 9.33727C10.7648 10.8992 9.43318 12.1195 7.86744 12.1195C7.86334 12.1196 7.85906 12.1196 7.85508 12.1195C7.62703 12.1195 7.41287 12.2079 7.25174 12.3684C7.09102 12.5286 7.00254 12.7418 7.00254 12.9687V15.0961C7.00254 17.6208 7.73906 20.0616 9.13242 22.1546C9.26689 22.3567 9.53971 22.4114 9.74174 22.2769C9.94377 22.1424 9.9985 21.8696 9.86402 21.6676C8.56699 19.7193 7.88144 17.447 7.88144 15.0962V12.9985C9.88348 12.9911 11.5854 11.4364 11.7742 9.44232H18.2255C18.4114 11.4374 20.1131 12.9922 22.1186 12.9982V15.0962C22.1186 19.8167 19.3248 24.0874 15.0001 25.9802C13.5378 25.3402 12.2374 24.4257 11.1346 23.2617C10.9676 23.0854 10.6895 23.0779 10.5132 23.2447ZM29.5605 12.4869C29.8032 12.4869 30 12.2902 30 12.0475V3.21076C30 1.97666 28.996 0.972656 27.7619 0.972656H2.23811C1.004 0.972656 0 1.97666 0 3.21076V28.7345C0 29.9687 1.004 30.9727 2.23811 30.9727H27.7618C28.996 30.9727 30 29.9687 30 28.7346V14.0982C30 13.8555 29.8032 13.6588 29.5605 13.6588C29.3179 13.6588 29.1211 13.8555 29.1211 14.0982V28.7346C29.1211 29.484 28.5114 30.0938 27.7619 30.0938H2.23811C1.48863 30.0938 0.878906 29.484 0.878906 28.7346V5.36719H10.2912C11.2443 5.36719 12.0197 4.59182 12.0197 3.63867V2.58398C12.0197 2.1801 12.3482 1.85156 12.7521 1.85156H17.2479C17.6518 1.85156 17.9804 2.1801 17.9804 2.58398V3.63867C17.9804 4.59182 18.7558 5.36719 19.7089 5.36719H29.1211V12.0475C29.1211 12.2902 29.3179 12.4869 29.5605 12.4869ZM11.1408 2.58398V3.63867C11.1408 4.10713 10.7596 4.48828 10.2912 4.48828H0.878906V3.21076C0.878906 2.46129 1.48863 1.85156 2.23811 1.85156H11.3176C11.2048 2.07146 11.1408 2.32031 11.1408 2.58398ZM19.7088 4.48828C19.2404 4.48828 18.8592 4.10713 18.8592 3.63867V2.58398C18.8592 2.32031 18.7952 2.07146 18.6824 1.85156H27.7619C28.5114 1.85156 29.1211 2.46129 29.1211 3.21076V4.48828H19.7088ZM17.0021 12.7297C16.467 12.1952 15.756 11.9009 15 11.9009C13.4388 11.9009 12.1687 13.1711 12.1687 14.7322V16.191C11.5982 16.3965 11.1892 16.943 11.1892 17.5834V20.2873C11.1892 21.103 11.8529 21.7667 12.6686 21.7667H17.3314C18.1471 21.7667 18.8108 21.103 18.8108 20.2873V17.5834C18.8108 16.943 18.4017 16.3965 17.8313 16.191V14.7322C17.8313 13.9762 17.5369 13.2652 17.0021 12.7297ZM13.0477 14.7322C13.0477 13.6557 13.9235 12.7799 15 12.7799C15.5214 12.7799 16.0119 12.9829 16.3806 13.3512C16.7493 13.7203 16.9523 14.2108 16.9523 14.7322V16.104H13.0476V14.7322H13.0477ZM17.9319 17.5835V20.2873C17.9319 20.6184 17.6625 20.8879 17.3314 20.8879H12.6686C12.3375 20.8879 12.0681 20.6184 12.0681 20.2873V17.5835C12.0681 17.2523 12.3375 16.9829 12.6686 16.9829H17.3314C17.6625 16.9829 17.9319 17.2523 17.9319 17.5835Z" fill="white"/>
</svg>
