<svg width="268" height="71" viewBox="0 0 268 71" fill="none" xmlns="http://www.w3.org/2000/svg">
<path fill-rule="evenodd" clip-rule="evenodd" d="M48.1392 23.4537C50.8559 23.042 53.9517 22.0195 53.9602 27.098C53.9632 28.6476 53.0543 34.2429 52.7445 35.9975C52.2294 38.9159 51.5315 41.4795 51.0058 44.4052L49.8212 50.7548C49.5767 51.7189 49.4941 51.8049 49.068 52.6271L52.9153 48.9392C54.3937 47.4529 55.2591 46.4767 56.9088 45.1992C57.826 44.4889 58.4072 43.8381 59.6978 42.8674C61.404 41.584 62.4019 40.8357 64.2865 39.8283C64.8692 39.5167 65.3647 39.1854 65.955 38.885C67.1299 38.2875 68.1901 37.7659 69.3658 37.1767C71.3018 36.2057 78.7376 33.3616 81.2472 32.448L83.9296 31.2654C84.6334 30.8325 86.3533 29.7796 86.8884 29.1041C87.1385 28.7884 87.2005 28.7251 87.4726 28.4338C89.4021 26.3677 89.7968 25.3261 90.6948 22.6653C91.5685 20.0773 91.9625 17.0833 92.2849 14.0055C92.5546 11.427 92.5094 6.59201 92.0292 4.35329C91.7263 2.94002 91.1659 1.77975 90.2302 1.02968C89.1517 0.16476 88.0386 0.0054429 86.1406 0.00132002C80.7191 -0.0104596 74.4925 2.69796 70.0641 5.6523C67.2697 7.51642 65.9544 8.47647 63.3517 10.434L61.1566 12.1052C60.9056 12.3107 60.6861 12.4524 60.444 12.6465L56.0887 16.024C55.1075 16.7617 54.1539 17.4814 53.2315 18.2874C50.9808 20.254 50.5835 20.7146 48.7401 22.6795C48.3913 23.0514 48.3757 22.964 48.1392 23.4537Z" fill="#4F296A"/>
<path fill-rule="evenodd" clip-rule="evenodd" d="M43.2604 52.4182C43.1285 51.8766 42.8431 51.977 42.6051 50.5278C42.4843 49.7919 42.3362 49.1231 42.2028 48.4213C41.9327 47.0004 41.6862 45.6154 41.4264 44.1818C40.8998 41.2773 40.191 38.6678 39.6871 35.7738C39.4352 34.3276 39.2454 32.8596 39.0112 31.4272C38.6686 29.3339 37.6912 24.524 40.0327 23.3675C41.1314 22.8248 43.425 23.1458 44.4849 23.5262C43.6927 22.4549 40.0691 18.9787 39.4426 18.4466L30.8087 11.7195C29.829 10.9839 28.8901 10.2512 27.9007 9.50729L20.2965 4.36342C16.3764 2.1674 11.2368 -0.0259771 6.69369 0.000232579C3.49032 0.018491 1.37864 0.474351 0.509403 4.0586C-0.0324745 6.29379 -0.147663 11.064 0.190864 13.6316C0.382754 15.0864 0.419185 16.4746 0.696882 18.1465C1.05069 20.278 2.05305 24.3058 3.08068 26.0103C3.41685 26.5674 3.73569 26.9818 4.16061 27.4394C5.75127 29.1531 5.61639 29.5109 8.23733 31.0958C9.8371 32.0633 15.0802 33.8702 17.3111 34.7667L22.7728 37.0354C25.0823 38.0485 25.8439 38.565 27.8157 39.6193C28.4322 39.9485 28.8957 40.2097 29.4852 40.562C30.0264 40.885 30.4852 41.2084 30.9979 41.5568C31.2733 41.7441 31.4473 41.8866 31.7179 42.091L35.9833 45.5586C38.0729 47.1936 38.7059 48.3035 39.9069 49.2639C40.8352 50.0057 42.7444 52.2963 43.2604 52.4182Z" fill="#4F296A"/>
<path fill-rule="evenodd" clip-rule="evenodd" d="M59.623 54.092C59.623 57.1983 61.0127 60.0451 62.6651 62.2379C63.882 63.8529 64.7456 64.8306 66.45 65.9779C67.2379 66.5083 68.0477 66.8311 68.9875 67.2012C72.2811 68.4993 79.0158 69.768 81.3608 66.2512C82.6282 64.3506 82.7877 62.1522 83.2259 59.9597L84.7833 51.4763C85.332 48.1648 85.5139 48.0838 85.5139 44.4665C85.5139 41.5673 84.081 39.0261 81.2335 39.0261H80.294C74.9628 39.0261 67.162 43.0939 63.2029 46.3804C62.5217 46.9459 62.9525 46.8419 62.1532 47.6299C60.7594 49.0046 59.623 51.8235 59.623 54.092Z" fill="#727271"/>
<path fill-rule="evenodd" clip-rule="evenodd" d="M6.90137 45.3035C6.90137 46.5954 7.06445 47.8606 7.25928 49.0253C7.46586 50.261 7.66363 51.3553 7.88609 52.5821L9.19023 59.6452C10.1847 64.6012 10.0883 68.53 17.1327 68.53C19.3766 68.53 21.5753 67.9016 23.2035 67.2905L25.118 66.4889C26.0128 66.0416 27.1054 65.2906 27.8089 64.5821C30.1545 62.2196 32.7925 58.2264 32.7925 54.8244C32.7925 53.0884 32.7508 51.4916 31.8745 49.99C30.6241 47.8467 30.4616 47.9913 29.6579 46.7709C29.367 46.3292 27.7043 45.2381 27.1856 44.8544C23.6455 42.2378 16.7683 39.0261 12.2258 39.0261C10.1902 39.0261 9.04919 39.115 7.85905 40.9273C7.14321 42.0176 6.90137 43.5321 6.90137 45.3035Z" fill="#727271"/>
<path fill-rule="evenodd" clip-rule="evenodd" d="M43.26 52.4182C43.4971 52.8988 45.0073 53.7819 46.047 53.7831C47.4504 53.7852 47.9573 53.4259 49.0675 52.6272C49.4936 51.805 49.5762 51.719 49.8207 50.7549L51.0052 44.4053C51.531 41.4796 52.2289 38.916 52.744 35.9976C53.0537 34.243 53.9627 28.6477 53.9597 27.0981C53.9512 22.0196 50.8554 23.0421 48.1386 23.4538C47.8709 23.606 47.6664 23.8581 47.3264 24.0881C47.0431 24.2795 46.7014 24.5343 46.3429 24.5649C45.5871 24.63 44.9376 23.874 44.4845 23.5262C43.4245 23.1458 41.131 22.8247 40.0322 23.3675C37.6908 24.524 38.6681 29.3339 39.0108 31.4271C39.245 32.8595 39.4348 34.3276 39.6866 35.7738C40.1906 38.6678 40.8994 41.2773 41.426 44.1818C41.6858 45.6154 41.9323 47.0004 42.2024 48.4213C42.3358 49.1231 42.4839 49.7919 42.6047 50.5278C42.8427 51.977 43.128 51.8766 43.26 52.4182Z" fill="#FEFEFE"/>
<path fill-rule="evenodd" clip-rule="evenodd" d="M39.5784 8.16225C39.5784 9.65238 39.7559 10.5082 40.2343 11.69C40.3389 11.9488 40.4185 12.1632 40.4914 12.3735C40.7679 13.1733 41.9192 14.4343 42.4585 15.215L43.7688 16.8315C44.7764 18.0904 45.2728 17.9968 46.7817 17.9968C48.0621 17.9968 49.4864 15.9984 50.1644 15.0045L51.8147 12.7804L52.4588 11.131C52.8185 9.97336 53.1606 8.36455 52.6428 7.20573C52.572 7.04729 52.554 7.02139 52.5111 6.91949C52.5014 6.89593 52.4906 6.86825 52.4812 6.84469C52.4715 6.82113 52.4621 6.79256 52.4524 6.769C51.8391 5.25737 49.2628 4.29116 47.5126 4.29116C46.0095 4.29116 44.3377 4.17658 42.9275 4.61331C41.8761 4.93902 41.4447 5.30863 40.7253 5.85904C40.0447 6.3794 39.5784 7.58299 39.5784 8.16225Z" fill="#727271"/>
<path d="M125.264 0.504852C129.311 0.504852 132.574 1.84833 135.053 4.53526C137.532 7.2222 138.771 10.7711 138.771 15.1817V53.1286C138.771 54.1425 138.265 54.6496 137.253 54.6496H129.286C128.274 54.6496 127.768 54.1425 127.768 53.1286V14.269C127.768 13.2551 127.553 12.4568 127.123 11.8737C126.693 11.2906 126.073 10.9993 125.264 10.9993C124.454 10.9993 123.834 11.2906 123.404 11.8737C122.975 12.4568 122.759 13.2551 122.759 14.269V53.1286C122.759 54.1425 122.253 54.6496 121.242 54.6496H113.35C112.338 54.6496 111.832 54.1425 111.832 53.1286V14.269C111.832 13.2551 111.617 12.4568 111.187 11.8737C110.757 11.2906 110.138 10.9993 109.328 10.9993C108.519 10.9993 107.899 11.2906 107.469 11.8737C107.039 12.4568 106.824 13.2551 106.824 14.269V53.1286C106.824 54.1425 106.318 54.6496 105.306 54.6496H97.3385C96.3268 54.6496 95.821 54.1425 95.821 53.1286V15.1817C95.821 10.7711 97.0602 7.2222 99.5392 4.53526C102.018 1.84833 105.281 0.504852 109.328 0.504852C112.313 0.504852 114.969 1.39215 117.296 3.16646C119.623 1.39215 122.279 0.504852 125.264 0.504852ZM156.376 55.5623C152.379 55.5623 149.154 54.3708 146.701 51.988C144.247 49.6053 143.02 46.4619 143.02 42.5584C143.02 39.1108 144.197 36.2973 146.549 34.1171C148.901 31.9373 151.949 30.8471 155.693 30.8471H158.273V28.1855C158.273 27.3745 158.083 26.7408 157.704 26.2846C157.324 25.8281 156.781 25.6002 156.072 25.6002C154.706 25.6002 153.973 26.3099 153.872 27.7293C153.821 28.1855 153.682 28.4771 153.454 28.604C153.227 28.7306 152.86 28.7939 152.354 28.7939H144.993C143.931 28.7939 143.45 28.2871 143.552 27.2732C143.855 23.7749 145.157 20.974 147.459 18.8699C149.761 16.766 152.683 15.7141 156.224 15.7141C159.967 15.7141 162.99 16.918 165.292 19.3264C167.594 21.7344 168.745 24.9155 168.745 28.8699V43.0906C168.745 46.893 167.657 49.9222 165.482 52.1783C163.306 54.4341 160.271 55.5623 156.376 55.5623ZM156.224 45.6002C157.59 45.6002 158.273 44.7889 158.273 43.1666V39.8968H156.376C155.465 39.8968 154.769 40.1248 154.289 40.5812C153.808 41.0374 153.568 41.6964 153.568 42.5584C153.568 43.5214 153.808 44.2694 154.289 44.8016C154.769 45.334 155.414 45.6002 156.224 45.6002ZM174.967 54.6496C173.955 54.6496 173.449 54.1425 173.449 53.1286V32.8243C173.449 27.704 174.765 23.7243 177.395 20.8851C180.026 18.0462 183.643 16.6268 188.246 16.6268H190.068C191.08 16.6268 191.585 17.1336 191.585 18.1475V24.9918C191.585 26.0057 191.08 26.5125 190.068 26.5125H188.626C187.159 26.5125 186.008 26.9436 185.173 27.8053C184.338 28.6673 183.921 29.8585 183.921 31.3796V53.1286C183.921 54.1425 183.415 54.6496 182.404 54.6496H174.967ZM215.792 33.0526C217.259 34.2184 218.397 35.6889 219.207 37.4632C220.016 39.2378 220.421 41.2656 220.421 43.547V53.1286C220.421 54.1425 219.915 54.6496 218.903 54.6496H211.391C210.379 54.6496 209.873 54.1425 209.873 53.1286V42.8626C209.873 42.0513 209.671 41.4176 209.266 40.9614C208.861 40.505 208.305 40.277 207.597 40.277H205.472V53.1286C205.472 54.1425 204.966 54.6496 203.954 54.6496H196.518C195.506 54.6496 195 54.1425 195 53.1286V2.93823C195 1.92429 195.506 1.41749 196.518 1.41749H203.954C204.966 1.41749 205.472 1.92429 205.472 2.93823V30.391H206.383L210.404 17.9193C210.708 17.0576 211.29 16.6268 212.15 16.6268H219.738C220.143 16.6268 220.471 16.7281 220.724 16.9307C220.977 17.1336 221.104 17.4124 221.104 17.7673C221.104 18.0209 221.079 18.2235 221.028 18.3757L215.792 33.0526ZM225.733 2.93823C225.733 1.92429 226.239 1.41749 227.251 1.41749H235.294C236.306 1.41749 236.812 1.92429 236.812 2.93823V53.1286C236.812 54.1425 236.306 54.6496 235.294 54.6496H227.251C226.239 54.6496 225.733 54.1425 225.733 53.1286V2.93823ZM244.021 54.6496C243.009 54.6496 242.503 54.1425 242.503 53.1286V28.8699C242.503 24.9155 243.667 21.7344 245.994 19.3264C248.321 16.918 251.407 15.7141 255.252 15.7141C259.096 15.7141 262.182 16.918 264.509 19.3264C266.836 21.7344 268 24.9155 268 28.8699V53.1286C268 54.1425 267.494 54.6496 266.482 54.6496H259.046C258.034 54.6496 257.528 54.1425 257.528 53.1286V28.1855C257.528 27.3745 257.326 26.7408 256.921 26.2846C256.516 25.8281 255.96 25.6002 255.252 25.6002C254.543 25.6002 253.987 25.8281 253.582 26.2846C253.177 26.7408 252.975 27.3745 252.975 28.1855V53.1286C252.975 54.1425 252.469 54.6496 251.458 54.6496H244.021Z" fill="#727271"/>
<path d="M104.225 68.464H103.481V65.3015C103.481 64.6277 103.3 64.1371 102.938 63.8261C102.669 63.5976 102.344 63.4833 101.962 63.4833C101.733 63.4833 101.522 63.5287 101.328 63.6194C101.133 63.7101 100.972 63.8293 100.845 63.9789C100.69 64.1606 100.595 64.3553 100.558 64.5638C100.521 64.7738 100.503 65.0191 100.503 65.3015V68.464H99.7583V65.3015C99.7583 64.7502 99.6375 64.315 99.3959 63.9993C99.1344 63.6547 98.7588 63.4833 98.2693 63.4833C97.7729 63.4833 97.4006 63.6479 97.1523 63.9789C96.9043 64.3085 96.78 64.7502 96.78 65.3015V68.464H96.0356V62.9488H96.74V63.6547C96.9075 63.3723 97.1256 63.1605 97.3939 63.0195C97.6622 62.8784 97.954 62.8078 98.2693 62.8078C98.7721 62.8078 99.2014 62.937 99.5569 63.1941C99.805 63.3708 99.9995 63.5976 100.141 63.8765C100.328 63.5405 100.59 63.2784 100.925 63.0902C101.26 62.902 101.619 62.8078 102.002 62.8078C102.558 62.8078 103.034 62.9724 103.43 63.3019C103.96 63.7454 104.225 64.4177 104.225 65.3183V68.464ZM169.213 62.2732H168.469V61.0031H169.213V62.2732ZM169.213 68.464H168.469V62.9488H169.213V68.464ZM113.131 68.464H112.426V67.4357C112.131 67.8591 111.786 68.1648 111.39 68.353C111.055 68.5144 110.679 68.5951 110.263 68.5951C109.432 68.5951 108.732 68.3212 108.166 67.7735C107.599 67.2257 107.315 66.5248 107.315 65.6711C107.315 64.9384 107.557 64.2999 108.04 63.7554C108.59 63.1305 109.324 62.8178 110.243 62.8178C110.759 62.8178 111.191 62.9102 111.536 63.0952C111.881 63.2798 112.171 63.5504 112.406 63.9068L112.426 62.9488H113.131V68.464ZM112.426 65.7418C112.426 65.1166 112.219 64.5856 111.803 64.1489C111.387 63.7118 110.867 63.4933 110.243 63.4933C109.64 63.4933 109.125 63.7068 108.699 64.1335C108.273 64.5606 108.06 65.093 108.06 65.7318C108.06 66.3502 108.276 66.8694 108.709 67.2893C109.141 67.7096 109.66 67.9195 110.263 67.9195C110.86 67.9195 111.37 67.7078 111.792 67.2843C112.215 66.8608 112.426 66.3467 112.426 65.7418ZM118.756 63.574C118.347 63.574 117.998 63.7018 117.71 63.9571C117.368 64.2596 117.197 64.6731 117.197 65.1973V68.464H116.452V62.9488H117.157V63.7454C117.318 63.4497 117.537 63.2227 117.816 63.0648C118.094 62.907 118.407 62.8281 118.756 62.8281V63.574ZM125.901 68.464H124.945L123.155 66.2863L122.279 67.4154V68.464H121.535V61.0031H122.279V66.387L124.875 62.9488H125.76L123.627 65.7114L125.901 68.464ZM134.123 65.9735H129.203C129.203 66.5181 129.407 66.9786 129.817 67.355C130.226 67.7314 130.719 67.9195 131.295 67.9195C131.718 67.9195 132.1 67.807 132.443 67.5817C132.785 67.3567 133.043 67.0525 133.217 66.6694H133.992C133.77 67.2675 133.422 67.7381 132.945 68.0809C132.469 68.4237 131.919 68.5951 131.295 68.5951C130.477 68.5951 129.795 68.3212 129.248 67.7735C128.701 67.2257 128.428 66.5384 128.428 65.7114C128.428 64.9655 128.67 64.3135 129.152 63.7554C129.696 63.1305 130.41 62.8178 131.295 62.8178C132.254 62.8178 132.986 63.1641 133.489 63.8564C133.911 64.4345 134.123 65.1401 134.123 65.9735ZM133.318 65.2983C133.217 64.747 132.979 64.3085 132.603 63.9825C132.228 63.6565 131.792 63.4933 131.295 63.4933C130.765 63.4933 130.308 63.6597 129.922 63.9925C129.537 64.3253 129.297 64.7605 129.203 65.2983H133.318ZM139.889 63.6244H138.611V68.464H137.867V63.6244H136.72V62.9488H137.867V61.0031H138.611V62.9488H139.889V63.6244ZM143.442 62.2732H142.698V61.0031H143.442V62.2732ZM143.442 68.464H142.698V62.9488H143.442V68.464ZM151.694 68.464H150.949V65.5604C150.949 64.9016 150.801 64.3924 150.506 64.0328C150.211 63.6733 149.775 63.4933 149.198 63.4933C148.736 63.4933 148.36 63.6211 148.072 63.8765C147.696 64.2125 147.508 64.7334 147.508 65.4393V68.464H146.764V62.9488H147.468V63.7454C147.683 63.443 147.947 63.2127 148.263 63.0548C148.578 62.8967 148.92 62.8178 149.289 62.8178C149.98 62.8178 150.537 63.0263 150.959 63.443C151.449 63.9268 151.694 64.6327 151.694 65.5604V68.464ZM160.459 67.6778C160.459 68.6726 160.18 69.4285 159.623 69.9462C159.141 70.3965 158.5 70.6218 157.702 70.6218C157.018 70.6218 156.429 70.4386 155.936 70.0723C155.443 69.7059 155.103 69.2135 154.915 68.5951H155.66C155.841 69.0321 156.126 69.3714 156.515 69.6134C156.87 69.8352 157.263 69.9462 157.692 69.9462C158.523 69.9462 159.1 69.647 159.422 69.0489C159.617 68.6858 159.714 68.2288 159.714 67.6778V67.375C159.519 67.7581 159.243 68.0573 158.884 68.2723C158.525 68.4876 158.101 68.5951 157.611 68.5951C156.793 68.5951 156.11 68.3144 155.564 67.7531C155.017 67.1918 154.744 66.5148 154.744 65.7218C154.744 64.9084 155.014 64.221 155.554 63.6597C156.094 63.0984 156.766 62.8178 157.571 62.8178C158.074 62.8178 158.508 62.9203 158.874 63.1255C159.239 63.3305 159.526 63.6279 159.734 64.0175L159.754 62.9488H160.459V67.6778ZM159.754 65.7114C159.754 65.073 159.545 64.5438 159.125 64.1235C158.706 63.7033 158.191 63.4933 157.581 63.4933C156.984 63.4933 156.486 63.7033 156.087 64.1235C155.688 64.5438 155.488 65.063 155.488 65.6814C155.488 66.2995 155.69 66.8273 156.092 67.2643C156.494 67.701 157.004 67.9195 157.621 67.9195C158.232 67.9195 158.74 67.7063 159.146 67.2793C159.551 66.8526 159.754 66.3299 159.754 65.7114ZM177.465 68.464H176.72V65.5604C176.72 64.9016 176.572 64.3924 176.277 64.0328C175.982 63.6733 175.546 63.4933 174.969 63.4933C174.507 63.4933 174.131 63.6211 173.843 63.8765C173.467 64.2125 173.279 64.7334 173.279 65.4393V68.464H172.535V62.9488H173.239V63.7454C173.454 63.443 173.718 63.2127 174.034 63.0548C174.349 62.8967 174.691 62.8178 175.06 62.8178C175.751 62.8178 176.308 63.0263 176.73 63.443C177.22 63.9268 177.465 64.6327 177.465 65.5604V68.464ZM186.35 68.464H185.646V67.4557C185.391 67.8188 185.076 68.0995 184.7 68.2977C184.324 68.4959 183.915 68.5951 183.473 68.5951C182.648 68.5951 181.952 68.318 181.385 67.7634C180.818 67.2086 180.535 66.5113 180.535 65.6711C180.535 64.9519 180.776 64.3167 181.259 63.7657C181.816 63.1337 182.547 62.8178 183.453 62.8178C183.962 62.8178 184.386 62.9085 184.725 63.0902C185.064 63.2716 185.351 63.5437 185.585 63.9068L185.606 61.0031H186.35V68.464ZM185.646 65.7418C185.646 65.0965 185.44 64.5606 185.027 64.1335C184.615 63.7068 184.09 63.4933 183.453 63.4933C182.842 63.4933 182.327 63.7068 181.908 64.1335C181.489 64.5606 181.279 65.093 181.279 65.7318C181.279 66.3567 181.494 66.8776 181.923 67.2946C182.353 67.7113 182.869 67.9195 183.473 67.9195C184.076 67.9195 184.589 67.7113 185.012 67.2946C185.435 66.8776 185.646 66.3602 185.646 65.7418ZM194.521 68.464H193.817V67.6674C193.602 67.9767 193.339 68.2087 193.027 68.3633C192.715 68.5179 192.371 68.5951 191.996 68.5951C191.298 68.5951 190.738 68.3869 190.316 67.9699C189.833 67.4928 189.591 66.7869 189.591 65.8528V62.9488H190.336V65.8528C190.336 66.5652 190.52 67.1029 190.889 67.466C191.198 67.7685 191.597 67.9195 192.086 67.9195C192.549 67.9195 192.925 67.792 193.213 67.5364C193.589 67.2004 193.777 66.6794 193.777 65.9735V62.9488H194.521V68.464ZM200.881 66.8408C200.881 67.3518 200.724 67.7717 200.408 68.1009C200.093 68.4305 199.66 68.5951 199.111 68.5951C198.567 68.5951 198.145 68.4169 197.843 68.0609C197.568 67.7381 197.43 67.3314 197.43 66.8408H198.175C198.148 67.1297 198.228 67.3818 198.416 67.5971C198.604 67.812 198.855 67.9195 199.171 67.9195C199.473 67.9195 199.709 67.8271 199.88 67.6424C200.051 67.4575 200.137 67.2307 200.137 66.9618C200.137 66.6594 200.026 66.4241 199.805 66.256C199.664 66.1485 199.419 66.0342 199.07 65.9132C198.634 65.7653 198.322 65.6175 198.135 65.4697C197.799 65.2008 197.632 64.8344 197.632 64.3706C197.632 63.9268 197.776 63.5572 198.064 63.2616C198.353 62.9656 198.738 62.8178 199.221 62.8178C199.664 62.8178 200.028 62.9606 200.313 63.2462C200.598 63.5319 200.74 63.89 200.74 64.3202H199.996C199.996 64.0782 199.922 63.88 199.774 63.7254C199.627 63.5708 199.436 63.4933 199.201 63.4933C198.946 63.4933 198.745 63.5708 198.597 63.7254C198.45 63.88 198.376 64.0747 198.376 64.31C198.376 64.5924 198.49 64.8177 198.718 64.9855C198.866 65.093 199.111 65.2008 199.453 65.3083C199.895 65.4493 200.214 65.6007 200.408 65.7618C200.724 66.0174 200.881 66.377 200.881 66.8408ZM206.456 63.6244H205.179V68.464H204.434V63.6244H203.287V62.9488H204.434V61.0031H205.179V62.9488H206.456V63.6244ZM211.569 63.574C211.16 63.574 210.811 63.7018 210.523 63.9571C210.181 64.2596 210.01 64.6731 210.01 65.1973V68.464H209.265V62.9488H209.97V63.7454C210.13 63.4497 210.35 63.2227 210.628 63.0648C210.907 62.907 211.22 62.8281 211.569 62.8281V63.574ZM215.092 62.2732H214.348V61.0031H215.092V62.2732ZM215.092 68.464H214.348V62.9488H215.092V68.464ZM223.897 65.9735H218.977C218.977 66.5181 219.181 66.9786 219.591 67.355C220 67.7314 220.493 67.9195 221.07 67.9195C221.492 67.9195 221.874 67.807 222.217 67.5817C222.559 67.3567 222.817 67.0525 222.991 66.6694H223.766C223.545 67.2675 223.196 67.7381 222.72 68.0809C222.244 68.4237 221.693 68.5951 221.07 68.5951C220.251 68.5951 219.569 68.3212 219.022 67.7735C218.476 67.2257 218.202 66.5384 218.202 65.7114C218.202 64.9655 218.444 64.3135 218.927 63.7554C219.47 63.1305 220.184 62.8178 221.07 62.8178C222.029 62.8178 222.76 63.1641 223.263 63.8564C223.685 64.4345 223.897 65.1401 223.897 65.9735ZM223.092 65.2983C222.991 64.747 222.753 64.3085 222.378 63.9825C222.002 63.6565 221.566 63.4933 221.07 63.4933C220.54 63.4933 220.082 63.6597 219.696 63.9925C219.311 64.3253 219.071 64.7605 218.977 65.2983H223.092ZM230.046 66.8408C230.046 67.3518 229.888 67.7717 229.573 68.1009C229.258 68.4305 228.825 68.5951 228.275 68.5951C227.732 68.5951 227.309 68.4169 227.007 68.0609C226.732 67.7381 226.595 67.3314 226.595 66.8408H227.339C227.312 67.1297 227.393 67.3818 227.581 67.5971C227.769 67.812 228.02 67.9195 228.335 67.9195C228.637 67.9195 228.874 67.8271 229.045 67.6424C229.216 67.4575 229.301 67.2307 229.301 66.9618C229.301 66.6594 229.19 66.4241 228.969 66.256C228.828 66.1485 228.584 66.0342 228.235 65.9132C227.799 65.7653 227.487 65.6175 227.299 65.4697C226.964 65.2008 226.796 64.8344 226.796 64.3706C226.796 63.9268 226.94 63.5572 227.229 63.2616C227.517 62.9656 227.903 62.8178 228.385 62.8178C228.828 62.8178 229.192 62.9606 229.477 63.2462C229.762 63.5319 229.905 63.89 229.905 64.3202H229.16C229.16 64.0782 229.087 63.88 228.939 63.7254C228.791 63.5708 228.6 63.4933 228.365 63.4933C228.111 63.4933 227.909 63.5708 227.762 63.7254C227.614 63.88 227.54 64.0747 227.54 64.31C227.54 64.5924 227.655 64.8177 227.883 64.9855C228.03 65.093 228.275 65.2008 228.617 65.3083C229.06 65.4493 229.378 65.6007 229.573 65.7618C229.888 66.0174 230.046 66.377 230.046 66.8408Z" fill="#4F296A"/>
</svg>
