<svg width="230" height="135" viewBox="0 0 230 135" fill="none" xmlns="http://www.w3.org/2000/svg">
<circle cx="42" cy="115" r="20" fill="#727271"/>
<circle cx="42" cy="115" r="8" fill="#4F296A"/>
<g filter="url(#filter0_d)">
<path d="M42.1662 111.5L48.5209 103.132H35.8116L42.1662 111.5Z" fill="white"/>
<path d="M12 12H218V104.062H12V12Z" fill="white"/>
</g>
<path fill-rule="evenodd" clip-rule="evenodd" d="M65.6622 54.6164C67.2233 54.3774 69.0023 53.7838 69.0072 56.7322C69.0089 57.6318 68.4866 60.8802 68.3086 61.8988C68.0126 63.5932 67.6115 65.0814 67.3095 66.78L66.6288 70.4663C66.4883 71.026 66.4408 71.076 66.196 71.5533L68.4067 69.4122C69.2562 68.5494 69.7535 67.9826 70.7015 67.2409C71.2285 66.8286 71.5625 66.4507 72.3042 65.8872C73.2846 65.1421 73.858 64.7077 74.9409 64.1228C75.2758 63.9419 75.5605 63.7496 75.8997 63.5752C76.5748 63.2283 77.184 62.9255 77.8597 62.5834C78.9721 62.0197 83.2449 60.3685 84.687 59.8382L86.2284 59.1516C86.6328 58.9002 87.6211 58.289 87.9286 57.8968C88.0723 57.7135 88.1079 57.6768 88.2643 57.5077C89.373 56.3082 89.5998 55.7035 90.1158 54.1588C90.6179 52.6563 90.8443 50.918 91.0295 49.1313C91.1846 47.6342 91.1586 44.8273 90.8826 43.5276C90.7085 42.7071 90.3865 42.0335 89.8489 41.598C89.2292 41.0959 88.5895 41.0034 87.4988 41.001C84.3836 40.9942 80.8056 42.5666 78.2609 44.2817C76.6552 45.3639 75.8994 45.9213 74.4038 47.0577L73.1424 48.028C72.9982 48.1473 72.872 48.2296 72.7329 48.3422L70.2302 50.3031C69.6664 50.7313 69.1185 51.1492 68.5884 51.6171C67.2951 52.7589 67.0668 53.0263 66.0076 54.167C65.8071 54.3829 65.7982 54.3321 65.6622 54.6164V54.6164Z" fill="#4F296A"/>
<path fill-rule="evenodd" clip-rule="evenodd" d="M62.8586 71.4318C62.7828 71.1173 62.6188 71.1756 62.482 70.3343C62.4126 69.907 62.3275 69.5188 62.2509 69.1113C62.0957 68.2864 61.954 67.4824 61.8047 66.6501C61.5021 64.9638 61.0949 63.4489 60.8053 61.7688C60.6605 60.9291 60.5515 60.0769 60.4169 59.2453C60.22 58.03 59.6584 55.2376 61.0038 54.5662C61.6352 54.2511 62.9532 54.4374 63.5622 54.6583C63.107 54.0363 61.0248 52.0182 60.6648 51.7093L55.7035 47.8038C55.1405 47.3768 54.601 46.9514 54.0325 46.5195L49.6629 43.5332C47.4103 42.2583 44.4569 40.9849 41.8464 41.0001C40.0056 41.0107 38.7922 41.2754 38.2927 43.3563C37.9813 44.6539 37.9151 47.4233 38.1097 48.9139C38.2199 49.7585 38.2409 50.5645 38.4004 51.5351C38.6038 52.7725 39.1797 55.1109 39.7702 56.1004C39.9634 56.4239 40.1466 56.6645 40.3908 56.9302C41.3048 57.925 41.2273 58.1328 42.7334 59.0529C43.6527 59.6146 46.6655 60.6636 47.9474 61.184L51.0859 62.5012C52.4129 63.0893 52.8506 63.3892 53.9837 64.0013C54.3379 64.1924 54.6042 64.3441 54.943 64.5485C55.254 64.7361 55.5176 64.9238 55.8122 65.1261C55.9705 65.2348 56.0704 65.3176 56.226 65.4362L58.677 67.4494C59.8777 68.3986 60.2414 69.043 60.9316 69.6005C61.465 70.0312 62.5621 71.361 62.8586 71.4318V71.4318Z" fill="#4F296A"/>
<path fill-rule="evenodd" clip-rule="evenodd" d="M72.2609 72.4033C72.2609 74.2067 73.0594 75.8595 74.0089 77.1325C74.7082 78.0701 75.2044 78.6377 76.1838 79.3038C76.6365 79.6117 77.1019 79.7991 77.6419 80.014C79.5345 80.7676 83.4044 81.5042 84.7519 79.4625C85.4802 78.359 85.5719 77.0827 85.8237 75.8099L86.7187 70.8848C87.0339 68.9622 87.1384 68.9152 87.1384 66.8152C87.1384 65.132 86.3151 63.6567 84.6788 63.6567H84.139C81.0755 63.6567 76.593 66.0183 74.3179 67.9263C73.9265 68.2546 74.174 68.1942 73.7147 68.6518C72.9138 69.4498 72.2609 71.0864 72.2609 72.4033V72.4033Z" fill="#727271"/>
<path fill-rule="evenodd" clip-rule="evenodd" d="M41.9656 67.3011C41.9656 68.0511 42.0593 68.7856 42.1712 69.4618C42.29 70.1792 42.4036 70.8145 42.5314 71.5268L43.2808 75.6273C43.8522 78.5045 43.7969 80.7854 47.8448 80.7854C49.1342 80.7854 50.3976 80.4206 51.3332 80.0658L52.4334 79.6004C52.9475 79.3407 53.5754 78.9048 53.9796 78.4934C55.3275 77.1219 56.8433 74.8036 56.8433 72.8285C56.8433 71.8207 56.8193 70.8937 56.3158 70.0219C55.5973 68.7776 55.5039 68.8615 55.0421 68.153C54.8749 67.8966 53.9195 67.2631 53.6215 67.0404C51.5872 65.5213 47.6354 63.6567 45.0251 63.6567C43.8555 63.6567 43.1998 63.7084 42.5159 64.7605C42.1045 65.3934 41.9656 66.2727 41.9656 67.3011V67.3011Z" fill="#727271"/>
<path fill-rule="evenodd" clip-rule="evenodd" d="M62.8584 71.4316C62.9946 71.7106 63.8624 72.2234 64.4598 72.2241C65.2663 72.2253 65.5576 72.0167 66.1955 71.553C66.4404 71.0757 66.4878 71.0257 66.6283 70.466L67.309 66.7797C67.6111 65.0811 68.0121 63.5929 68.3082 61.8986C68.4861 60.8799 69.0084 57.6315 69.0067 56.7319C69.0018 53.7835 67.2229 54.3771 65.6618 54.6161C65.508 54.7045 65.3904 54.8509 65.1951 54.9844C65.0323 55.0955 64.8359 55.2434 64.6299 55.2612C64.1956 55.299 63.8224 54.8601 63.562 54.6582C62.9529 54.4373 61.635 54.2509 61.0036 54.566C59.6581 55.2374 60.2198 58.0299 60.4167 59.2451C60.5512 60.0767 60.6603 60.929 60.805 61.7686C61.0946 63.4487 61.5019 64.9637 61.8045 66.6499C61.9538 67.4822 62.0955 68.2863 62.2506 69.1112C62.3273 69.5186 62.4124 69.9069 62.4818 70.3342C62.6186 71.1755 62.7826 71.1172 62.8584 71.4316V71.4316Z" fill="#FEFEFE"/>
<path fill-rule="evenodd" clip-rule="evenodd" d="M60.7428 45.7387C60.7428 46.6038 60.8448 47.1006 61.1197 47.7867C61.1798 47.937 61.2256 48.0615 61.2674 48.1835C61.4263 48.6479 62.0879 49.38 62.3978 49.8332L63.1507 50.7717C63.7298 51.5025 64.015 51.4482 64.8821 51.4482C65.6178 51.4482 66.4362 50.288 66.8258 49.711L67.7741 48.4198L68.1443 47.4622C68.3509 46.7901 68.5475 45.8561 68.25 45.1834C68.2093 45.0914 68.199 45.0763 68.1743 45.0172C68.1687 45.0035 68.1625 44.9874 68.1571 44.9737C68.1515 44.9601 68.1461 44.9435 68.1405 44.9298C67.7881 44.0522 66.3077 43.4913 65.302 43.4913C64.4383 43.4913 63.4776 43.4248 62.6673 43.6783C62.0631 43.8674 61.8152 44.082 61.4019 44.4015C61.0108 44.7036 60.7428 45.4024 60.7428 45.7387V45.7387Z" fill="#727271"/>
<path d="M109.98 41.293C112.305 41.293 114.18 42.0729 115.605 43.6329C117.029 45.1928 117.741 47.2531 117.741 49.8137V71.8441C117.741 72.4327 117.451 72.7271 116.869 72.7271H112.291C111.709 72.7271 111.419 72.4327 111.419 71.8441V49.2839C111.419 48.6952 111.295 48.2317 111.048 47.8932C110.801 47.5547 110.445 47.3856 109.98 47.3856C109.515 47.3856 109.159 47.5547 108.911 47.8932C108.664 48.2317 108.541 48.6952 108.541 49.2839V71.8441C108.541 72.4327 108.25 72.7271 107.669 72.7271H103.134C102.553 72.7271 102.262 72.4327 102.262 71.8441V49.2839C102.262 48.6952 102.138 48.2317 101.891 47.8932C101.644 47.5547 101.288 47.3856 100.823 47.3856C100.358 47.3856 100.002 47.5547 99.7545 47.8932C99.5075 48.2317 99.3839 48.6952 99.3839 49.2839V71.8441C99.3839 72.4327 99.0931 72.7271 98.5117 72.7271H93.9333C93.3519 72.7271 93.0613 72.4327 93.0613 71.8441V49.8137C93.0613 47.2531 93.7733 45.1928 95.1979 43.6329C96.6222 42.0729 98.4972 41.293 100.823 41.293C102.538 41.293 104.064 41.8081 105.401 42.8382C106.739 41.8081 108.265 41.293 109.98 41.293V41.293ZM127.858 73.2569C125.561 73.2569 123.708 72.5652 122.298 71.1819C120.888 69.7986 120.183 67.9737 120.183 65.7075C120.183 63.7059 120.859 62.0725 122.211 60.8068C123.563 59.5413 125.314 58.9084 127.465 58.9084H128.948V57.3632C128.948 56.8923 128.839 56.5244 128.621 56.2596C128.403 55.9946 128.09 55.8622 127.683 55.8622C126.898 55.8622 126.477 56.2743 126.419 57.0983C126.39 57.3632 126.31 57.5324 126.179 57.6061C126.048 57.6796 125.837 57.7164 125.547 57.7164H121.317C120.706 57.7164 120.43 57.4222 120.489 56.8335C120.663 54.8026 121.411 53.1765 122.734 51.9549C124.057 50.7335 125.735 50.1228 127.77 50.1228C129.922 50.1228 131.658 50.8217 132.981 52.2199C134.304 53.6179 134.965 55.4647 134.965 57.7605V66.0164C134.965 68.224 134.34 69.9825 133.09 71.2923C131.84 72.602 130.096 73.2569 127.858 73.2569V73.2569ZM127.77 67.4734C128.555 67.4734 128.948 67.0024 128.948 66.0605V64.1623H127.858C127.334 64.1623 126.935 64.2946 126.658 64.5596C126.382 64.8244 126.244 65.207 126.244 65.7075C126.244 66.2665 126.382 66.7008 126.658 67.0097C126.935 67.3188 127.305 67.4734 127.77 67.4734ZM138.541 72.7271C137.959 72.7271 137.669 72.4327 137.669 71.8441V60.0563C137.669 57.0836 138.424 54.7732 139.936 53.1249C141.448 51.4767 143.526 50.6527 146.171 50.6527H147.218C147.799 50.6527 148.09 50.9469 148.09 51.5355V55.509C148.09 56.0977 147.799 56.3919 147.218 56.3919H146.389C145.546 56.3919 144.885 56.6422 144.405 57.1425C143.926 57.6429 143.686 58.3345 143.686 59.2175V71.8441C143.686 72.4327 143.395 72.7271 142.814 72.7271H138.541V72.7271ZM162 60.1888C162.843 60.8656 163.497 61.7193 163.962 62.7494C164.427 63.7796 164.66 64.9569 164.66 66.2814V71.8441C164.66 72.4327 164.369 72.7271 163.788 72.7271H159.471C158.889 72.7271 158.599 72.4327 158.599 71.8441V65.8841C158.599 65.4131 158.482 65.0451 158.25 64.7803C158.017 64.5153 157.698 64.383 157.29 64.383H156.07V71.8441C156.07 72.4327 155.779 72.7271 155.197 72.7271H150.924C150.343 72.7271 150.052 72.4327 150.052 71.8441V42.7057C150.052 42.117 150.343 41.8228 150.924 41.8228H155.197C155.779 41.8228 156.07 42.117 156.07 42.7057V58.6436H156.593L158.904 51.403C159.078 50.9028 159.413 50.6527 159.907 50.6527H164.267C164.5 50.6527 164.689 50.7115 164.834 50.8291C164.98 50.9469 165.052 51.1088 165.052 51.3148C165.052 51.462 165.038 51.5796 165.009 51.668L162 60.1888V60.1888ZM167.712 42.7057C167.712 42.117 168.003 41.8228 168.584 41.8228H173.206C173.788 41.8228 174.078 42.117 174.078 42.7057V71.8441C174.078 72.4327 173.788 72.7271 173.206 72.7271H168.584C168.003 72.7271 167.712 72.4327 167.712 71.8441V42.7057ZM178.221 72.7271C177.639 72.7271 177.349 72.4327 177.349 71.8441V57.7605C177.349 55.4647 178.017 53.6179 179.355 52.2199C180.692 50.8217 182.465 50.1228 184.674 50.1228C186.884 50.1228 188.657 50.8217 189.994 52.2199C191.331 53.6179 192 55.4647 192 57.7605V71.8441C192 72.4327 191.709 72.7271 191.128 72.7271H186.854C186.273 72.7271 185.982 72.4327 185.982 71.8441V57.3632C185.982 56.8923 185.866 56.5244 185.634 56.2596C185.401 55.9946 185.081 55.8622 184.674 55.8622C184.267 55.8622 183.948 55.9946 183.715 56.2596C183.483 56.5244 183.366 56.8923 183.366 57.3632V71.8441C183.366 72.4327 183.076 72.7271 182.494 72.7271H178.221V72.7271Z" fill="#727271"/>
<path d="M97.8906 80.7475H97.4628V78.9115C97.4628 78.5203 97.3587 78.2355 97.1507 78.0549C96.9965 77.9223 96.8096 77.8559 96.5899 77.8559C96.4587 77.8559 96.3375 77.8822 96.2257 77.9349C96.1139 77.9876 96.0214 78.0568 95.9481 78.1437C95.8594 78.2491 95.8045 78.3622 95.7833 78.4832C95.7622 78.6051 95.7515 78.7475 95.7515 78.9115V80.7475H95.3238V78.9115C95.3238 78.5914 95.2544 78.3387 95.1156 78.1555C94.9653 77.9554 94.7495 77.8559 94.4682 77.8559C94.183 77.8559 93.969 77.9515 93.8264 78.1437C93.6838 78.335 93.6124 78.5914 93.6124 78.9115V80.7475H93.1847V77.5456H93.5894V77.9554C93.6857 77.7915 93.811 77.6685 93.9652 77.5866C94.1193 77.5047 94.287 77.4637 94.4682 77.4637C94.7571 77.4637 95.0038 77.5388 95.2081 77.688C95.3506 77.7906 95.4624 77.9223 95.5435 78.0842C95.6514 77.8891 95.8017 77.7369 95.9943 77.6277C96.187 77.5184 96.3932 77.4637 96.6129 77.4637C96.9329 77.4637 97.2064 77.5593 97.4339 77.7506C97.7383 78.0081 97.8906 78.3984 97.8906 78.9212V80.7475V80.7475ZM135.234 77.1534H134.807V76.416H135.234V77.1534ZM135.234 80.7475H134.807V77.5456H135.234V80.7475ZM103.008 80.7475H102.603V80.1505C102.434 80.3963 102.235 80.5738 102.008 80.6831C101.815 80.7768 101.599 80.8236 101.36 80.8236C100.882 80.8236 100.481 80.6646 100.155 80.3466C99.8291 80.0286 99.6664 79.6217 99.6664 79.126C99.6664 78.7007 99.8052 78.33 100.083 78.0139C100.399 77.6511 100.821 77.4695 101.349 77.4695C101.645 77.4695 101.893 77.5232 102.092 77.6306C102.29 77.7378 102.457 77.8949 102.592 78.1018L102.603 77.5456H103.008V80.7475ZM102.603 79.1671C102.603 78.8041 102.484 78.4959 102.245 78.2423C102.006 77.9886 101.707 77.8617 101.349 77.8617C101.002 77.8617 100.706 77.9857 100.461 78.2334C100.217 78.4813 100.094 78.7904 100.094 79.1613C100.094 79.5203 100.219 79.8217 100.467 80.0655C100.716 80.3095 101.013 80.4314 101.36 80.4314C101.703 80.4314 101.996 80.3085 102.239 80.0626C102.482 79.8168 102.603 79.5183 102.603 79.1671V79.1671ZM106.241 77.9086C106.006 77.9086 105.805 77.9828 105.639 78.131C105.443 78.3066 105.344 78.5466 105.344 78.851V80.7475H104.917V77.5456H105.321V78.0081C105.414 77.8364 105.54 77.7046 105.7 77.613C105.86 77.5213 106.04 77.4755 106.241 77.4755V77.9086V77.9086ZM110.346 80.7475H109.797L108.768 79.4832L108.265 80.1387V80.7475H107.837V76.416H108.265V79.5417L109.757 77.5456H110.265L109.04 79.1495L110.346 80.7475V80.7475ZM115.07 79.3016H112.243C112.243 79.6178 112.361 79.8852 112.596 80.1037C112.831 80.3222 113.115 80.4314 113.446 80.4314C113.689 80.4314 113.908 80.3661 114.105 80.2353C114.302 80.1047 114.45 79.9281 114.55 79.7056H114.995C114.868 80.0529 114.668 80.3261 114.394 80.5251C114.12 80.7241 113.804 80.8236 113.446 80.8236C112.976 80.8236 112.583 80.6646 112.269 80.3466C111.955 80.0286 111.798 79.6295 111.798 79.1495C111.798 78.7164 111.937 78.3379 112.215 78.0139C112.527 77.6511 112.937 77.4695 113.446 77.4695C113.997 77.4695 114.417 77.6706 114.706 78.0725C114.949 78.4081 115.07 78.8178 115.07 79.3016ZM114.608 78.9096C114.55 78.5895 114.413 78.335 114.197 78.1457C113.982 77.9564 113.731 77.8617 113.446 77.8617C113.141 77.8617 112.878 77.9583 112.657 78.1515C112.435 78.3447 112.297 78.5974 112.243 78.9096H114.608V78.9096ZM118.384 77.9378H117.65V80.7475H117.222V77.9378H116.563V77.5456H117.222V76.416H117.65V77.5456H118.384V77.9378ZM120.426 77.1534H119.998V76.416H120.426V77.1534ZM120.426 80.7475H119.998V77.5456H120.426V80.7475ZM125.167 80.7475H124.74V79.0618C124.74 78.6793 124.655 78.3837 124.485 78.1749C124.316 77.9662 124.065 77.8617 123.733 77.8617C123.468 77.8617 123.252 77.9359 123.086 78.0842C122.87 78.2792 122.762 78.5817 122.762 78.9915V80.7475H122.334V77.5456H122.739V78.0081C122.862 77.8325 123.015 77.6988 123.196 77.6072C123.377 77.5153 123.574 77.4695 123.785 77.4695C124.182 77.4695 124.502 77.5906 124.745 77.8325C125.027 78.1134 125.167 78.5232 125.167 79.0618V80.7475V80.7475ZM130.204 80.291C130.204 80.8686 130.044 81.3074 129.724 81.608C129.447 81.8694 129.078 82.0002 128.62 82.0002C128.227 82.0002 127.888 81.8939 127.605 81.6812C127.322 81.4685 127.126 81.1826 127.018 80.8236H127.446C127.55 81.0773 127.714 81.2743 127.938 81.4148C128.142 81.5435 128.367 81.608 128.614 81.608C129.092 81.608 129.423 81.4343 129.608 81.0871C129.72 80.8763 129.776 80.6109 129.776 80.291V80.1153C129.664 80.3377 129.505 80.5114 129.299 80.6362C129.093 80.7612 128.849 80.8236 128.568 80.8236C128.097 80.8236 127.705 80.6607 127.391 80.3348C127.077 80.0089 126.92 79.6159 126.92 79.1555C126.92 78.6832 127.075 78.2842 127.385 77.9583C127.696 77.6325 128.082 77.4695 128.545 77.4695C128.834 77.4695 129.083 77.529 129.293 77.6482C129.503 77.7672 129.668 77.9399 129.788 78.1661L129.799 77.5456H130.204V80.291ZM129.799 79.1495C129.799 78.7788 129.679 78.4716 129.438 78.2276C129.197 77.9836 128.901 77.8617 128.55 77.8617C128.207 77.8617 127.921 77.9836 127.692 78.2276C127.463 78.4716 127.348 78.773 127.348 79.132C127.348 79.4909 127.463 79.7973 127.695 80.051C127.926 80.3045 128.219 80.4314 128.574 80.4314C128.924 80.4314 129.216 80.3076 129.449 80.0597C129.683 79.812 129.799 79.5085 129.799 79.1495V79.1495ZM139.976 80.7475H139.548V79.0618C139.548 78.6793 139.463 78.3837 139.294 78.1749C139.124 77.9662 138.874 77.8617 138.542 77.8617C138.276 77.8617 138.06 77.9359 137.895 78.0842C137.679 78.2792 137.571 78.5817 137.571 78.9915V80.7475H137.143V77.5456H137.548V78.0081C137.671 77.8325 137.823 77.6988 138.004 77.6072C138.186 77.5153 138.382 77.4695 138.594 77.4695C138.991 77.4695 139.311 77.5906 139.554 77.8325C139.835 78.1134 139.976 78.5232 139.976 79.0618V80.7475V80.7475ZM145.082 80.7475H144.677V80.1621C144.531 80.3729 144.35 80.5359 144.134 80.6509C143.918 80.766 143.683 80.8236 143.428 80.8236C142.954 80.8236 142.554 80.6627 142.229 80.3408C141.903 80.0187 141.74 79.6138 141.74 79.126C141.74 78.7085 141.879 78.3398 142.156 78.0199C142.476 77.653 142.897 77.4695 143.417 77.4695C143.71 77.4695 143.953 77.5222 144.148 77.6277C144.343 77.733 144.508 77.891 144.642 78.1018L144.654 76.416H145.082V80.7475ZM144.677 79.1671C144.677 78.7925 144.559 78.4813 144.322 78.2334C144.085 77.9857 143.783 77.8617 143.417 77.8617C143.066 77.8617 142.77 77.9857 142.529 78.2334C142.288 78.4813 142.168 78.7904 142.168 79.1613C142.168 79.5241 142.291 79.8265 142.538 80.0686C142.785 80.3105 143.081 80.4314 143.428 80.4314C143.775 80.4314 144.07 80.3105 144.313 80.0686C144.556 79.8265 144.677 79.5261 144.677 79.1671ZM149.777 80.7475H149.372V80.285C149.249 80.4646 149.098 80.5993 148.919 80.689C148.739 80.7788 148.542 80.8236 148.326 80.8236C147.925 80.8236 147.603 80.7027 147.361 80.4606C147.083 80.1837 146.944 79.7738 146.944 79.2315V77.5456H147.372V79.2315C147.372 79.6451 147.478 79.9573 147.69 80.1681C147.867 80.3437 148.097 80.4314 148.378 80.4314C148.644 80.4314 148.86 80.3574 149.025 80.209C149.241 80.0139 149.349 79.7114 149.349 79.3016V77.5456H149.777V80.7475V80.7475ZM153.432 79.8051C153.432 80.1018 153.341 80.3456 153.16 80.5367C152.979 80.728 152.73 80.8236 152.414 80.8236C152.102 80.8236 151.859 80.7202 151.686 80.5135C151.528 80.3261 151.449 80.09 151.449 79.8051H151.877C151.861 79.9729 151.907 80.1192 152.015 80.2442C152.123 80.369 152.268 80.4314 152.449 80.4314C152.622 80.4314 152.758 80.3777 152.857 80.2705C152.955 80.1631 153.004 80.0315 153.004 79.8754C153.004 79.6998 152.94 79.5632 152.813 79.4656C152.732 79.4032 152.592 79.3369 152.391 79.2666C152.141 79.1808 151.961 79.0949 151.854 79.0091C151.661 78.853 151.564 78.6403 151.564 78.371C151.564 78.1134 151.647 77.8988 151.813 77.7272C151.979 77.5554 152.2 77.4695 152.478 77.4695C152.732 77.4695 152.941 77.5524 153.105 77.7183C153.269 77.8841 153.351 78.092 153.351 78.3418H152.923C152.923 78.2013 152.881 78.0862 152.796 77.9965C152.711 77.9067 152.601 77.8617 152.466 77.8617C152.32 77.8617 152.204 77.9067 152.119 77.9965C152.035 78.0862 151.992 78.1992 151.992 78.3358C151.992 78.4998 152.058 78.6306 152.189 78.728C152.274 78.7904 152.414 78.853 152.611 78.9154C152.865 78.9973 153.048 79.0852 153.16 79.1787C153.341 79.3271 153.432 79.5359 153.432 79.8051V79.8051ZM156.635 77.9378H155.901V80.7475H155.474V77.9378H154.814V77.5456H155.474V76.416H155.901V77.5456H156.635V77.9378ZM159.573 77.9086C159.338 77.9086 159.138 77.9828 158.972 78.131C158.775 78.3066 158.677 78.5466 158.677 78.851V80.7475H158.249V77.5456H158.654V78.0081C158.747 77.8364 158.873 77.7046 159.033 77.613C159.193 77.5213 159.373 77.4755 159.573 77.4755V77.9086V77.9086ZM161.598 77.1534H161.17V76.416H161.598V77.1534ZM161.598 80.7475H161.17V77.5456H161.598V80.7475ZM166.657 79.3016H163.83C163.83 79.6178 163.948 79.8852 164.183 80.1037C164.418 80.3222 164.701 80.4314 165.033 80.4314C165.275 80.4314 165.495 80.3661 165.692 80.2353C165.888 80.1047 166.037 79.9281 166.137 79.7056H166.582C166.455 80.0529 166.254 80.3261 165.981 80.5251C165.707 80.7241 165.391 80.8236 165.033 80.8236C164.562 80.8236 164.17 80.6646 163.856 80.3466C163.542 80.0286 163.385 79.6295 163.385 79.1495C163.385 78.7164 163.524 78.3379 163.801 78.0139C164.113 77.6511 164.524 77.4695 165.033 77.4695C165.584 77.4695 166.004 77.6706 166.293 78.0725C166.536 78.4081 166.657 78.8178 166.657 79.3016ZM166.195 78.9096C166.137 78.5895 166 78.335 165.784 78.1457C165.568 77.9564 165.318 77.8617 165.033 77.8617C164.728 77.8617 164.465 77.9583 164.243 78.1515C164.022 78.3447 163.884 78.5974 163.83 78.9096H166.195V78.9096ZM170.191 79.8051C170.191 80.1018 170.1 80.3456 169.919 80.5367C169.738 80.728 169.489 80.8236 169.173 80.8236C168.861 80.8236 168.618 80.7202 168.445 80.5135C168.286 80.3261 168.207 80.09 168.207 79.8051H168.635C168.62 79.9729 168.666 80.1192 168.774 80.2442C168.882 80.369 169.026 80.4314 169.208 80.4314C169.381 80.4314 169.517 80.3777 169.615 80.2705C169.714 80.1631 169.763 80.0315 169.763 79.8754C169.763 79.6998 169.699 79.5632 169.572 79.4656C169.491 79.4032 169.35 79.3369 169.15 79.2666C168.899 79.1808 168.72 79.0949 168.612 79.0091C168.42 78.853 168.323 78.6403 168.323 78.371C168.323 78.1134 168.406 77.8988 168.572 77.7272C168.737 77.5554 168.959 77.4695 169.236 77.4695C169.491 77.4695 169.7 77.5524 169.864 77.7183C170.028 77.8841 170.109 78.092 170.109 78.3418H169.682C169.682 78.2013 169.639 78.0862 169.554 77.9965C169.47 77.9067 169.36 77.8617 169.225 77.8617C169.079 77.8617 168.963 77.9067 168.878 77.9965C168.793 78.0862 168.751 78.1992 168.751 78.3358C168.751 78.4998 168.817 78.6306 168.948 78.728C169.032 78.7904 169.173 78.853 169.37 78.9154C169.624 78.9973 169.807 79.0852 169.919 79.1787C170.1 79.3271 170.191 79.5359 170.191 79.8051V79.8051Z" fill="#4F296A"/>
<defs>
<filter id="filter0_d" x="0" y="0" width="230" height="123.5" filterUnits="userSpaceOnUse" color-interpolation-filters="sRGB">
<feFlood flood-opacity="0" result="BackgroundImageFix"/>
<feColorMatrix in="SourceAlpha" type="matrix" values="0 0 0 0 0 0 0 0 0 0 0 0 0 0 0 0 0 0 127 0"/>
<feOffset/>
<feGaussianBlur stdDeviation="6"/>
<feColorMatrix type="matrix" values="0 0 0 0 0 0 0 0 0 0 0 0 0 0 0 0 0 0 0.15 0"/>
<feBlend mode="normal" in2="BackgroundImageFix" result="effect1_dropShadow"/>
<feBlend mode="normal" in="SourceGraphic" in2="effect1_dropShadow" result="shape"/>
</filter>
</defs>
</svg>
