<svg width="69" height="70" viewBox="0 0 69 70" fill="none" xmlns="http://www.w3.org/2000/svg">
<g clip-path="url(#clip0)">
<path d="M69 35.1061C69 54.1096 53.5541 69.5146 34.5 69.5146C15.4459 69.5146 0 54.1096 0 35.1061C0 16.1026 15.4459 0.697632 34.5 0.697632C53.5541 0.697632 69 16.1026 69 35.1061Z" fill="#7D4BA0"/>
<path d="M68.9998 35.1061C68.9998 33.0616 68.8198 31.0597 68.4771 29.1129L52.2236 12.9025L13.6506 57.3097L24.3782 68.0083C27.5789 68.9869 30.9775 69.5146 34.4998 69.5146C53.5539 69.5146 68.9998 54.1096 68.9998 35.1061Z" fill="#4F296A"/>
<path d="M29.7758 12.9025L21.0508 21.6044V51.2199H52.2238V12.9025H29.7758Z" fill="#CECECE"/>
<path d="M37.8306 12.9025H52.2236V51.2199H37.8306V12.9025Z" fill="#9E9B9B"/>
<path d="M29.7758 21.6044V12.9025L21.0508 21.6044H29.7758Z" fill="#5A5A5A"/>
<path d="M22.3757 18.9924L13.6506 27.6942V57.3097H44.8236V18.9924H22.3757Z" fill="#E6E7E8"/>
<path d="M29.7285 18.9924H44.8239V57.3097H29.7285V18.9924Z" fill="#D8D8FC"/>
<path d="M22.3757 27.6942V18.9924L13.6506 27.6942H22.3757Z" fill="#CECECE"/>
<path d="M39.8376 34.3107L45.4425 39.9007L34.7328 50.5819L29.1279 44.9919L39.8376 34.3107Z" fill="#A545CF"/>
<path d="M31.8447 47.7027L42.5544 37.0214L45.4413 39.9007L34.7317 50.5819L31.8447 47.7027Z" fill="#7D4BA0"/>
<path d="M56.5399 23.2415C51.5594 18.2742 43.4845 18.2742 38.504 23.2415C33.5234 28.2083 33.5234 36.2617 38.504 41.2291C43.4845 46.1964 51.5594 46.1969 56.5399 41.2296C61.5205 36.2623 61.5205 28.2088 56.5399 23.2415Z" fill="#B58CC8"/>
<path d="M56.5404 23.2419C56.512 23.2136 56.4825 23.1879 56.4536 23.16L38.4224 41.1434C38.4503 41.1718 38.4766 41.2017 38.505 41.2301C43.4855 46.1974 51.5604 46.1974 56.541 41.2301C61.5215 36.2627 61.521 28.2093 56.5404 23.2419Z" fill="#7D4BA0"/>
<path d="M53.8727 25.9018C50.3651 22.4035 44.6786 22.4035 41.171 25.9013C37.6639 29.3996 37.6639 35.0709 41.1715 38.5692C44.6791 42.067 50.3656 42.0675 53.8727 38.5692C57.3802 35.0715 57.3802 29.3996 53.8727 25.9018Z" fill="#A545CF"/>
<path d="M53.7868 25.8199L41.0898 38.4837C41.1177 38.512 41.1435 38.5414 41.172 38.5698C44.679 42.0681 50.366 42.0681 53.8731 38.5698C57.3807 35.0715 57.3807 29.4001 53.8731 25.9018C53.8452 25.874 53.8152 25.8477 53.7868 25.8199Z" fill="#4F296A"/>
<path d="M46.0056 38.4406L40.885 33.3336L43.744 30.4822L46.0056 32.7382L51.3014 27.4564L54.16 30.3079L46.0056 38.4406Z" fill="#E2C1F0"/>
<path d="M51.3014 27.4564L46.0129 32.7309V38.4338L54.1599 30.3079L51.3014 27.4564Z" fill="white"/>
</g>
<defs>
<clipPath id="clip0">
<rect width="69" height="68.817" fill="white" transform="translate(0 0.697632)"/>
</clipPath>
</defs>
</svg>
