<svg width="72" height="73" viewBox="0 0 72 73" fill="none" xmlns="http://www.w3.org/2000/svg">
<g clip-path="url(#clip0)">
<path d="M72 36.4244C72 56.2542 55.8825 72.3289 36 72.3289C16.1175 72.3289 0 56.2542 0 36.4244C0 16.5946 16.1175 0.519897 36 0.519897C55.8825 0.519897 72 16.5946 72 36.4244Z" fill="#7D4BA0"/>
<path d="M51.8203 20.044L49.2275 22.6299L39.4157 12.844L30.9485 21.2882L30.943 21.2827L12.7727 39.4042L22.5906 49.1961L19.9929 51.7875L40.3292 72.0698C56.9998 70.0767 70.1675 56.7232 71.8231 39.9937L51.8203 20.044Z" fill="#4F296A"/>
<path d="M58.1721 39.4097V31.5425L51.532 29.9005C51.3051 29.2497 51.0497 28.6273 50.7657 28.0329L54.1709 22.3729L48.6091 16.8259L42.9341 20.2221C42.3381 19.9394 41.7141 19.6841 41.0609 19.4578L39.4152 12.8353H31.5264L29.8807 19.4578C29.2281 19.6841 28.6041 19.9388 28.0081 20.2221L22.3325 16.8259L16.7707 22.3729L20.1759 28.0329C19.8925 28.6273 19.637 29.2502 19.4102 29.9005L12.77 31.5425V39.4097L19.4102 41.0511C19.637 41.7025 19.8925 42.3249 20.1759 42.9193L16.7707 48.5793L22.3325 54.1263L28.0081 50.7307C28.6041 51.0134 29.2281 51.2681 29.8807 51.4944L31.5264 58.1169H39.4152L41.0609 51.4944C41.7141 51.2681 42.3381 51.0134 42.9341 50.7307L48.6091 54.1263L51.3903 51.3531L54.1709 48.5793L50.7657 42.9193C51.0497 42.3249 51.3051 41.7025 51.532 41.0511L58.1721 39.4097ZM35.4711 46.7965C29.2001 46.7965 24.1205 41.7305 24.1205 35.4761C24.1205 32.3626 25.3977 29.5329 27.4406 27.4669C29.5121 25.4295 32.3499 24.1557 35.4711 24.1557C41.7421 24.1557 46.8216 29.2212 46.8216 35.4761C46.8216 38.589 45.5444 41.4193 43.5015 43.4853C41.4301 45.5227 38.5923 46.7965 35.4711 46.7965Z" fill="#D8D8FC"/>
<path d="M51.3903 51.3531L48.6091 54.1263L42.9341 50.7307C42.3381 51.0134 41.7141 51.2681 41.0609 51.4944L39.4152 58.1169H31.5264L29.8807 51.4944C29.2281 51.2681 28.6041 51.0134 28.0081 50.7307L22.3325 54.1263L16.7707 48.5792L20.1759 42.9193C19.8925 42.3249 19.637 41.7025 19.4102 41.0511L12.77 39.4097V31.5425L19.4102 29.9005C19.637 29.2497 19.8925 28.6273 20.1759 28.0329L16.7707 22.3729L19.5519 19.5991L27.4406 27.4669C25.3972 29.5329 24.1205 32.3632 24.1205 35.4761C24.1205 41.7305 29.1995 46.7965 35.4711 46.7965C38.5923 46.7965 41.4301 45.5227 43.5015 43.4852L51.3903 51.3531Z" fill="#D2D2D2"/>
<path d="M61.1987 55.1322L56.9965 50.941L52.1411 51.7815L52.0806 52.0417L50.9771 56.9445L55.1793 61.1356L61.1987 55.1322Z" fill="#A9A9A9"/>
<path d="M61.1987 55.1322L56.9964 50.941L52.141 51.7815L52.0806 52.0417L58.189 58.1339L61.1987 55.1322Z" fill="#656565"/>
<path d="M56.9965 50.941L42.0067 35.991L36.9904 36.9914L35.9873 41.9945L50.9771 56.9445L56.9965 50.941Z" fill="#D2D2D2"/>
<path d="M53.9869 53.9427L56.9966 50.941L42.0068 35.991L36.9905 36.9914L53.9869 53.9427Z" fill="#B6B6B6"/>
<path d="M42.0067 35.9911L30.9709 30.988L35.9873 41.9945L42.0067 35.9911Z" fill="#F5D8BE"/>
<path d="M38.997 38.9928L42.0067 35.9911L30.9709 30.988L38.997 38.9928Z" fill="#EBBF97"/>
</g>
<defs>
<clipPath id="clip0">
<rect width="72" height="71.809" fill="white" transform="translate(0 0.519897)"/>
</clipPath>
</defs>
</svg>
