<svg width="69" height="69" viewBox="0 0 69 69" fill="none" xmlns="http://www.w3.org/2000/svg">
<path d="M34.5 68.9177C53.5538 68.9177 69 53.5125 69 34.5093C69 15.506 53.5538 0.100769 34.5 0.100769C15.4462 0.100769 0 15.506 0 34.5093C0 53.5125 15.4462 68.9177 34.5 68.9177Z" fill="#7D4BA0"/>
<path d="M69 34.5093C69 35.0079 69 31.4262 69 34.5093L49 17.0362L43.2598 17.0362C39.7559 23.6222 15.5 52.4615 15.5 52.4615L34.5 68.9177C30.9504 68.9177 37 69.4164 34.5 68.9177C53.5538 68.9177 69 53.5125 69 34.5093Z" fill="#4F296A"/>
<path d="M15.1283 47.2389L15 54.1065L21.8859 53.9786L21.6649 50.104L25.5497 50.3244L25.3288 46.4498L29.2136 46.6702L28.9927 42.7956L32.8776 43.016L38.2237 37.684L31.4662 30.9443L15.1283 47.2389Z" fill="#C4C5DC"/>
<path d="M38.2242 37.684L32.8777 43.0162L28.9931 42.7958L29.214 46.6701L25.3294 46.4498L25.5503 50.3241L21.6649 50.1046L21.8858 53.9789L15.0002 54.1064L34.8452 34.314L38.2242 37.684Z" fill="#B6B6B6"/>
<path d="M50.3626 18.8379C45.3133 13.802 37.1267 13.802 32.0775 18.8379C27.0282 23.8738 27.0282 32.0386 32.0775 37.0745C37.1267 42.1104 45.3133 42.1104 50.3626 37.0745C55.4119 32.0386 55.4119 23.8738 50.3626 18.8379ZM42.5601 26.6196C41.2415 25.3045 41.2415 23.1722 42.5601 21.857C43.8788 20.5419 46.0168 20.5419 47.3354 21.857C48.654 23.1722 48.654 25.3045 47.3354 26.6196C46.0168 27.9348 43.8788 27.9348 42.5601 26.6196Z" fill="#C4C5DC"/>
<path d="M50.3622 18.838L47.3351 21.8571C48.6534 23.1719 48.6534 25.3041 47.3351 26.6189C46.016 27.9345 43.8782 27.9345 42.5599 26.6197L32.0776 37.0741C33.2712 38.2645 34.64 39.1733 36.1018 39.8004C40.8218 41.828 46.5067 40.92 50.3622 37.0749C55.412 32.0385 55.4112 23.8737 50.3622 18.838Z" fill="#B6B6B6"/>
</svg>
