<svg width="90" height="90" viewBox="0 0 90 90" fill="none" xmlns="http://www.w3.org/2000/svg">
<g filter="url(#filter0_d)">
<path d="M45.5001 79.712C64.4356 79.712 79.7858 64.4025 79.7858 45.5172C79.7858 26.632 64.4356 11.3224 45.5001 11.3224C26.5646 11.3224 11.2144 26.632 11.2144 45.5172C11.2144 64.4025 26.5646 79.712 45.5001 79.712Z" fill="#7D4BA0"/>
<g clip-path="url(#clip0)">
<path d="M73.9428 64.6515L34.0364 24.8508L29.2292 36.4832L33.7425 46.9416L62.2651 75.3886C66.9327 72.7437 70.9308 69.0598 73.9428 64.6515Z" fill="#4F296A"/>
<path d="M38.9591 55.5267L28.7444 65.7143L42.931 79.8633C43.6158 79.9032 44.3053 79.9257 45.0001 79.9257C50.3826 79.9257 55.4804 78.7127 60.036 76.5478L38.9591 55.5267Z" fill="#4F296A"/>
<path d="M79.8159 41.4183L66.4605 28.0984L56.2458 38.286L77.058 59.043C78.9485 54.7506 80.0002 50.0074 80.0002 45.0185C80.0002 43.8029 79.9376 42.6019 79.8159 41.4183Z" fill="#4F296A"/>
<path d="M38.9589 55.5267L35.3819 51.9592L32.0631 55.2693L28.7442 51.9592L25.1672 55.5267L28.4861 58.8368L25.1672 62.1469L28.7442 65.7144L32.0631 62.4042L35.3819 65.7144L38.9589 62.1469L35.64 58.8368L38.9589 55.5267Z" fill="#D2D2D2"/>
<path d="M66.4602 28.0984L62.8833 24.5309L59.5644 27.841L56.2454 24.5309L52.6685 28.0984L55.9873 31.4085L52.6685 34.7185L56.2454 38.286L59.5644 34.976L62.8833 38.286L66.4602 34.7185L63.1414 31.4085L66.4602 28.0984Z" fill="#D8D8FC"/>
<path d="M57.68 65.8326L52.6418 65.3805L55.1608 65.6066L52.6414 65.3847C52.652 65.2616 53.6272 52.9816 46.4976 45.0255C42.5396 40.6087 36.7293 38.2714 29.2283 38.0784L29.3586 33.0349C38.3269 33.2655 45.3716 36.179 50.2972 41.6945C58.882 51.3076 57.733 65.2441 57.68 65.8326Z" fill="#C4C5DC"/>
<path d="M50.2972 41.6946C48.7259 39.935 46.9378 38.4415 44.9414 37.2142V43.4799C45.4883 43.9631 46.0073 44.4781 46.4977 45.0253C53.6273 52.9814 52.6521 65.2614 52.6414 65.3845L55.1609 65.6064L52.6418 65.3803L55.1609 65.6064L57.6799 65.8325C57.7331 65.2441 58.8821 51.3075 50.2972 41.6946Z" fill="#BFBFBF"/>
<path d="M33.7414 46.9417L22.8135 36.0429L34.0353 24.8508L37.6123 28.4185L29.9674 36.0429L37.3184 43.3743L33.7414 46.9417Z" fill="#C4C5DC"/>
</g>
</g>
<defs>
<filter id="filter0_d" x="-2" y="-1.8833" width="95" height="94.8011" filterUnits="userSpaceOnUse" color-interpolation-filters="sRGB">
<feFlood flood-opacity="0" result="BackgroundImageFix"/>
<feColorMatrix in="SourceAlpha" type="matrix" values="0 0 0 0 0 0 0 0 0 0 0 0 0 0 0 0 0 0 127 0"/>
<feOffset/>
<feGaussianBlur stdDeviation="5"/>
<feColorMatrix type="matrix" values="0 0 0 0 0 0 0 0 0 0 0 0 0 0 0 0 0 0 0.06 0"/>
<feBlend mode="normal" in2="BackgroundImageFix" result="effect1_dropShadow"/>
<feBlend mode="normal" in="SourceGraphic" in2="effect1_dropShadow" result="shape"/>
</filter>
<clipPath id="clip0">
<rect width="70" height="69.8143" fill="white" transform="translate(10 10.1114)"/>
</clipPath>
</defs>
</svg>
