<svg width="89" height="90" viewBox="0 0 89 90" fill="none" xmlns="http://www.w3.org/2000/svg">
<g filter="url(#filter0_d)">
<path d="M44.5001 79.3009C63.4356 79.3009 78.7858 63.9913 78.7858 45.1061C78.7858 26.2208 63.4356 10.9113 44.5001 10.9113C25.5646 10.9113 10.2144 26.2208 10.2144 45.1061C10.2144 63.9913 25.5646 79.3009 44.5001 79.3009Z" fill="#7D4BA0"/>
<path d="M78 51.0902L61 33.6366L51 25.1591L24 48.0981C24.3954 49.5877 24 49.5941 25 50.5915L47.5 79.0159C58 79.0159 75.5 69.0424 78 51.0902Z" fill="#4F296A"/>
<path d="M51.1352 24.8955V45.695L29.3418 51.0164L26.4847 51.0113C26.2929 51.0113 26.0958 50.9958 25.8936 50.9544C24.5455 50.6906 23.6277 49.4288 23.6277 48.0584V24.8955H51.1352Z" fill="#F2F2F2"/>
<path d="M32.1985 32.5923H32.1985C30.6204 32.5923 29.3411 33.8683 29.3411 35.4422V51.0156H35.0559V35.4422C35.0559 33.8683 33.7766 32.5923 32.1985 32.5923Z" fill="#B0B1B5"/>
<path d="M58.7257 32.5923H43.8646H32.1448C33.7229 32.5923 35.0022 33.8683 35.0022 35.4422V44.4437V51.0156V66.6744H61.5827V35.4418C61.5827 33.868 60.3036 32.5923 58.7257 32.5923Z" fill="#E6E7E8"/>
<path d="M37.3813 34.934H59.3105V43.264H37.3813V34.934Z" fill="#C79BE7"/>
<path d="M37.3813 44.8689H59.3105V45.39H37.3813V44.8689Z" fill="#DAD7DC"/>
<path d="M37.3813 46.9949H59.3105V47.516H37.3813V46.9949Z" fill="#DAD7DC"/>
<path d="M37.3813 49.121H59.3105V49.6421H37.3813V49.121Z" fill="#DAD7DC"/>
<path d="M37.3813 51.2471H59.3105V51.7682H37.3813V51.2471Z" fill="#DAD7DC"/>
<path d="M37.3813 53.373H59.3105V53.8941H37.3813V53.373Z" fill="#DAD7DC"/>
<path d="M37.3813 55.4991H59.3105V56.0202H37.3813V55.4991Z" fill="#DAD7DC"/>
<path d="M37.3813 57.6252H59.3105V58.1463H37.3813V57.6252Z" fill="#DAD7DC"/>
<path d="M37.3813 59.7512H59.3105V60.2723H37.3813V59.7512Z" fill="#DAD7DC"/>
<path d="M37.3813 61.8773H59.3105V62.3984H37.3813V61.8773Z" fill="#DAD7DC"/>
<path d="M37.3813 64.0034H59.3105V64.5244H37.3813V64.0034Z" fill="#DAD7DC"/>
<path d="M54.3298 60.1213L56.3269 58.1296L57.7612 59.5601L55.7642 61.5519L54.3298 60.1213Z" fill="#344E5C"/>
<path d="M64.5009 65.041L58.5525 60.339L56.5554 62.3307L61.27 68.2634C62.124 69.338 63.7264 69.4302 64.6986 68.4606L64.6986 68.4606C65.6708 67.4909 65.5784 65.8928 64.5009 65.041Z" fill="#344E5C"/>
<path d="M58.96 60.2225L56.4386 62.7371C56.207 62.9681 55.8315 62.9681 55.5999 62.7371L55.5128 62.6503C55.2812 62.4193 55.2812 62.0448 55.5128 61.8138L58.0342 59.2991C58.2658 59.0681 58.6413 59.0681 58.8729 59.2991L58.96 59.3859C59.1916 59.6169 59.1916 59.9914 58.96 60.2225Z" fill="#868686"/>
<path d="M50.7657 61.9689C54.8658 61.9689 58.1896 58.6539 58.1896 54.5647C58.1896 50.4755 54.8658 47.1605 50.7657 47.1605C46.6656 47.1605 43.3418 50.4755 43.3418 54.5647C43.3418 58.6539 46.6656 61.9689 50.7657 61.9689Z" fill="#C4C5DC"/>
<path d="M50.7658 60.2122C53.8931 60.2122 56.4283 57.6837 56.4283 54.5647C56.4283 51.4457 53.8931 48.9172 50.7658 48.9172C47.6385 48.9172 45.1033 51.4457 45.1033 54.5647C45.1033 57.6837 47.6385 60.2122 50.7658 60.2122Z" fill="#E6E7E8"/>
<path d="M50.7656 59.5972C53.5524 59.5972 55.8115 57.344 55.8115 54.5647C55.8115 51.7853 53.5524 49.5322 50.7656 49.5322C47.9788 49.5322 45.7197 51.7853 45.7197 54.5647C45.7197 57.344 47.9788 59.5972 50.7656 59.5972Z" fill="#4F296A"/>
<path d="M49.6994 57.2466C49.5453 57.2466 49.3912 57.188 49.2736 57.0706L47.8283 55.6292C47.593 55.3946 47.593 55.0145 47.8283 54.7798C48.0636 54.5452 48.4447 54.5452 48.6799 54.7798L49.6994 55.7966L52.8514 52.6529C53.0867 52.4183 53.4678 52.4183 53.703 52.6529C53.9383 52.8875 53.9383 53.2676 53.703 53.5023L50.1252 57.0706C50.0076 57.188 49.8535 57.2466 49.6994 57.2466Z" fill="#E6E7E8"/>
</g>
<defs>
<filter id="filter0_d" x="-3" y="-2.29443" width="95" height="94.8011" filterUnits="userSpaceOnUse" color-interpolation-filters="sRGB">
<feFlood flood-opacity="0" result="BackgroundImageFix"/>
<feColorMatrix in="SourceAlpha" type="matrix" values="0 0 0 0 0 0 0 0 0 0 0 0 0 0 0 0 0 0 127 0"/>
<feOffset/>
<feGaussianBlur stdDeviation="5"/>
<feColorMatrix type="matrix" values="0 0 0 0 0 0 0 0 0 0 0 0 0 0 0 0 0 0 0.06 0"/>
<feBlend mode="normal" in2="BackgroundImageFix" result="effect1_dropShadow"/>
<feBlend mode="normal" in="SourceGraphic" in2="effect1_dropShadow" result="shape"/>
</filter>
</defs>
</svg>
