<svg width="89" height="90" viewBox="0 0 89 90" fill="none" xmlns="http://www.w3.org/2000/svg">
<g filter="url(#filter0_d)">
<path d="M44.5001 79.1152C63.4356 79.1152 78.7858 63.8057 78.7858 44.9204C78.7858 26.0352 63.4356 10.7256 44.5001 10.7256C25.5646 10.7256 10.2144 26.0352 10.2144 44.9204C10.2144 63.8057 25.5646 79.1152 44.5001 79.1152Z" fill="#7D4BA0"/>
<path d="M78.5 45.9178C78.5 46.4165 78.5 42.8347 78.5 45.9178L58.5 27.4669L52.7598 27.4669C49.2559 34.0529 31 66.3634 31 66.3634L45.5 78.8303C41.9504 78.8303 48 79.3289 45.5 78.8303C64.5538 78.8303 78.5 64.9211 78.5 45.9178Z" fill="#4F296A"/>
<path d="M51.75 54.1458L47.25 58.6339H32.25V31.7055C32.9396 31.7048 33.6225 31.8398 34.2596 32.103C34.8967 32.3661 35.4754 32.7522 35.9625 33.2389C35.9756 33.252 35.9878 33.2642 36 33.2773C36.963 34.2549 37.5018 35.5711 37.5 36.9416H51.375L51.75 54.1458Z" fill="#EBBF97"/>
<path d="M51.75 54.1459L50.25 55.6419H39C38.2046 55.641 37.4421 55.3255 36.8797 54.7645C36.3173 54.2036 36.0009 53.4431 36 52.6498V33.2773C36.963 34.2549 37.5018 35.5711 37.5 36.9416H51.375L51.75 54.1459Z" fill="#F2C194"/>
<path d="M54 22.7294H39C38.1716 22.7294 37.5 23.3992 37.5 24.2255V52.6499C37.5 53.4761 38.1716 54.1459 39 54.1459H54C54.8284 54.1459 55.5 53.4761 55.5 52.6499V24.2255C55.5 23.3992 54.8284 22.7294 54 22.7294Z" fill="#5C5C5C"/>
<path d="M53.25 51.9018H39.75V24.9734H42.75L44.25 26.4695H48.75L50.25 24.9734H53.25V51.9018Z" fill="#B4B4B4"/>
<path d="M50.8713 37.818L55.6287 33.0732C55.8257 32.8768 56.0595 32.7209 56.3169 32.6146C56.5743 32.5083 56.8501 32.4536 57.1287 32.4536C57.4073 32.4536 57.6831 32.5083 57.9405 32.6146C58.1978 32.7209 58.4317 32.8768 58.6287 33.0732C58.8257 33.2697 58.9819 33.5029 59.0885 33.7596C59.1951 34.0163 59.25 34.2914 59.25 34.5692C59.25 34.8471 59.1951 35.1222 59.0885 35.3789C58.9819 35.6356 58.8257 35.8688 58.6287 36.0653L53.8713 40.81C53.6743 41.0065 53.4405 41.1623 53.1831 41.2686C52.9257 41.375 52.6499 41.4297 52.3713 41.4297C52.0927 41.4297 51.8169 41.375 51.5595 41.2686C51.3022 41.1623 51.0683 41.0065 50.8713 40.81C50.6743 40.6135 50.5181 40.3803 50.4115 40.1236C50.3049 39.8669 50.25 39.5918 50.25 39.314C50.25 39.0361 50.3049 38.761 50.4115 38.5043C50.5181 38.2477 50.6743 38.0144 50.8713 37.818Z" fill="#EBBF97"/>
<path d="M50.8713 31.8339L55.6287 27.0892C55.8257 26.8927 56.0595 26.7369 56.3169 26.6305C56.5743 26.5242 56.8501 26.4695 57.1287 26.4695C57.4073 26.4695 57.6831 26.5242 57.9405 26.6305C58.1978 26.7369 58.4317 26.8927 58.6287 27.0892C58.8257 27.2856 58.9819 27.5188 59.0885 27.7755C59.1951 28.0322 59.25 28.3073 59.25 28.5852C59.25 28.863 59.1951 29.1381 59.0885 29.3948C58.9819 29.6515 58.8257 29.8847 58.6287 30.0812L53.8713 34.8259C53.6743 35.0224 53.4405 35.1782 53.1831 35.2846C52.9257 35.3909 52.6499 35.4456 52.3713 35.4456C52.0927 35.4456 51.8169 35.3909 51.5595 35.2846C51.3022 35.1782 51.0683 35.0224 50.8713 34.8259C50.6743 34.6295 50.5181 34.3962 50.4115 34.1396C50.3049 33.8829 50.25 33.6078 50.25 33.3299C50.25 33.0521 50.3049 32.777 50.4115 32.5203C50.5181 32.2636 50.6743 32.0304 50.8713 31.8339Z" fill="#EBBF97"/>
<path d="M52.3713 48.2901L55.6287 45.0414C55.8257 44.845 56.0595 44.6891 56.3169 44.5828C56.5743 44.4765 56.8501 44.4218 57.1287 44.4218C57.4073 44.4218 57.6831 44.4765 57.9405 44.5828C58.1978 44.6891 58.4317 44.845 58.6287 45.0414C58.8257 45.2379 58.9819 45.4711 59.0885 45.7278C59.1951 45.9845 59.25 46.2596 59.25 46.5374C59.25 46.8153 59.1951 47.0904 59.0885 47.3471C58.9819 47.6038 58.8257 47.837 58.6287 48.0335L55.3713 51.2822C55.1743 51.4786 54.9405 51.6345 54.6831 51.7408C54.4257 51.8471 54.1499 51.9019 53.8713 51.9019C53.5927 51.9019 53.3169 51.8471 53.0595 51.7408C52.8022 51.6345 52.5683 51.4786 52.3713 51.2822C52.1743 51.0857 52.0181 50.8525 51.9115 50.5958C51.8049 50.3391 51.75 50.064 51.75 49.7862C51.75 49.5083 51.8049 49.2332 51.9115 48.9765C52.0181 48.7198 52.1743 48.4866 52.3713 48.2901Z" fill="#EBBF97"/>
<path d="M50.8713 43.802L55.6287 39.0573C55.8257 38.8608 56.0595 38.705 56.3169 38.5987C56.5743 38.4923 56.8501 38.4376 57.1287 38.4376C57.4073 38.4376 57.6831 38.4923 57.9405 38.5987C58.1978 38.705 58.4317 38.8608 58.6287 39.0573C58.8257 39.2538 58.9819 39.487 59.0885 39.7437C59.1951 40.0004 59.25 40.2755 59.25 40.5533C59.25 40.8312 59.1951 41.1063 59.0885 41.363C58.9819 41.6196 58.8257 41.8529 58.6287 42.0493L53.8713 46.7941C53.6743 46.9905 53.4405 47.1464 53.1831 47.2527C52.9257 47.359 52.6499 47.4137 52.3713 47.4137C52.0927 47.4137 51.8169 47.359 51.5595 47.2527C51.3022 47.1464 51.0683 46.9905 50.8713 46.7941C50.6743 46.5976 50.5181 46.3644 50.4115 46.1077C50.3049 45.851 50.25 45.5759 50.25 45.2981C50.25 45.0202 50.3049 44.7451 50.4115 44.4884C50.5181 44.2317 50.6743 43.9985 50.8713 43.802Z" fill="#EBBF97"/>
<path d="M30.75 58.634H50.25V66.8621H30.75V58.634Z" fill="#2F4054"/>
<path d="M53.8713 35.5741C53.723 35.5741 53.578 35.5302 53.4547 35.448C53.3313 35.3658 53.2352 35.249 53.1784 35.1124C53.1217 34.9757 53.1068 34.8253 53.1357 34.6802C53.1647 34.5351 53.2361 34.4018 53.341 34.2972L55.0983 32.5444C55.168 32.4749 55.2506 32.4197 55.3416 32.382C55.4327 32.3444 55.5302 32.325 55.6287 32.325C55.7273 32.3249 55.8248 32.3442 55.9159 32.3818C56.0069 32.4194 56.0896 32.4745 56.1593 32.544C56.229 32.6135 56.2843 32.696 56.322 32.7867C56.3597 32.8775 56.379 32.9748 56.379 33.0731C56.379 33.1714 56.3596 33.2687 56.3218 33.3595C56.2841 33.4502 56.2288 33.5327 56.1591 33.6021L54.4017 35.3549C54.3321 35.4245 54.2495 35.4797 54.1585 35.5173C54.0674 35.5549 53.9699 35.5742 53.8713 35.5741Z" fill="#F2C194"/>
<path d="M53.8713 41.558C53.723 41.558 53.578 41.5142 53.4547 41.432C53.3313 41.3498 53.2352 41.233 53.1784 41.0963C53.1217 40.9596 53.1068 40.8092 53.1357 40.6641C53.1647 40.519 53.2361 40.3858 53.341 40.2811L55.0983 38.5284C55.168 38.4588 55.2506 38.4037 55.3416 38.366C55.4327 38.3283 55.5302 38.3089 55.6287 38.3089C55.7273 38.3089 55.8248 38.3282 55.9159 38.3658C56.0069 38.4034 56.0896 38.4585 56.1593 38.5279C56.229 38.5974 56.2843 38.6799 56.322 38.7707C56.3597 38.8615 56.379 38.9588 56.379 39.0571C56.379 39.1553 56.3596 39.2526 56.3218 39.3434C56.2841 39.4342 56.2288 39.5166 56.1591 39.5861L54.4017 41.3389C54.3321 41.4084 54.2495 41.4636 54.1585 41.5012C54.0674 41.5388 53.9699 41.5581 53.8713 41.558Z" fill="#F2C194"/>
<path d="M53.8713 47.5421C53.723 47.5422 53.578 47.4983 53.4547 47.4161C53.3313 47.3339 53.2352 47.2171 53.1784 47.0804C53.1217 46.9438 53.1068 46.7934 53.1357 46.6483C53.1647 46.5032 53.2361 46.3699 53.341 46.2653L55.0983 44.5125C55.168 44.443 55.2506 44.3878 55.3416 44.3501C55.4327 44.3125 55.5302 44.2931 55.6287 44.293C55.7273 44.293 55.8248 44.3123 55.9159 44.3499C56.0069 44.3875 56.0896 44.4426 56.1593 44.5121C56.229 44.5815 56.2843 44.664 56.322 44.7548C56.3597 44.8456 56.379 44.9429 56.379 45.0412C56.379 45.1395 56.3596 45.2368 56.3218 45.3275C56.2841 45.4183 56.2288 45.5008 56.1591 45.5702L54.4017 47.323C54.3321 47.3926 54.2495 47.4478 54.1585 47.4854C54.0674 47.523 53.9699 47.5423 53.8713 47.5421Z" fill="#F2C194"/>
</g>
<defs>
<filter id="filter0_d" x="-3" y="-2.4801" width="95" height="94.8011" filterUnits="userSpaceOnUse" color-interpolation-filters="sRGB">
<feFlood flood-opacity="0" result="BackgroundImageFix"/>
<feColorMatrix in="SourceAlpha" type="matrix" values="0 0 0 0 0 0 0 0 0 0 0 0 0 0 0 0 0 0 127 0"/>
<feOffset/>
<feGaussianBlur stdDeviation="5"/>
<feColorMatrix type="matrix" values="0 0 0 0 0 0 0 0 0 0 0 0 0 0 0 0 0 0 0.06 0"/>
<feBlend mode="normal" in2="BackgroundImageFix" result="effect1_dropShadow"/>
<feBlend mode="normal" in="SourceGraphic" in2="effect1_dropShadow" result="shape"/>
</filter>
</defs>
</svg>
