<svg width="56" height="56" viewBox="0 0 56 56" fill="none" xmlns="http://www.w3.org/2000/svg">
<g clip-path="url(#clip0)">
<path d="M10.0744 37.1403L18.9029 45.9251C19.3837 46.4058 20.2578 53.3551 19.777 53.8358L18.0288 55.584C17.5481 56.0648 16.7613 56.0648 16.2806 55.584L15.3627 54.6662L8.36988 47.6734C5.52902 44.8325 2.64444 41.9916 1.2896 40.5931L0.415477 39.7189C-0.06525 39.2382 -0.06525 38.4514 0.415477 37.9707L2.16372 36.2225C2.64444 35.7417 9.59356 36.6596 10.0744 37.1403Z" fill="#D8DBDB"/>
<path d="M13.3521 5.27905C12.041 5.27905 10.9482 6.37167 10.9482 7.68291C10.9482 8.99414 12.0409 10.0868 13.3521 10.0868C14.6633 10.0868 15.756 8.99414 15.756 7.68291C15.756 6.37167 14.6632 5.27905 13.3521 5.27905ZM20.7821 7.9013C19.4709 7.9013 18.3782 8.99392 18.3782 10.3052C18.3782 11.6164 19.4708 12.709 20.7821 12.709C22.0933 12.709 23.1859 11.6164 23.1859 10.3052C23.1859 8.99392 22.0932 7.9013 20.7821 7.9013ZM48.098 34.7803C48.098 33.4691 47.0054 32.3764 45.6942 32.3764C44.3829 32.3764 43.2903 33.469 43.2903 34.7803C43.2903 36.0914 44.3829 37.1841 45.6942 37.1841C47.0054 37.1841 48.098 36.1351 48.098 34.7803ZM48.3165 39.8064C47.0054 39.8064 45.9127 40.899 45.9127 42.2102C45.9127 43.5213 47.0053 44.6141 48.3165 44.6141C49.6277 44.6141 50.7204 43.5215 50.7204 42.2102C50.7203 40.899 49.6277 39.8064 48.3165 39.8064Z" fill="#676767"/>
<path d="M32.7574 14.6319L41.4112 23.2857C42.3727 24.2472 51.9005 50.8639 50.9389 51.8254L47.4862 55.2782C46.5246 56.2398 44.995 56.2398 44.0334 55.2782L24.9341 31.0215L0.721173 12.0096C-0.240391 11.048 -0.240391 9.51838 0.721173 8.55682L4.17393 5.10407C5.13549 4.14261 31.7958 13.6704 32.7574 14.6319Z" fill="#D8DBDB"/>
<path d="M54.9598 1.08323C57.3636 3.48708 55.222 9.47464 52.3811 12.3592L21.1317 43.565C18.2471 46.4495 7.93256 52.9179 5.52881 50.5142C3.12507 48.1104 9.59346 37.7959 12.478 34.9113L43.6838 3.66186C46.5682 0.777279 52.5559 -1.32052 54.9598 1.08323Z" fill="#E4E7E7"/>
<path d="M14.6196 37.0093L45.8253 5.80357C48.2728 3.3561 52.9493 1.4767 55.7464 2.39454C55.5717 1.87009 55.3094 1.43297 54.9598 1.03969C52.5559 -1.36416 46.5682 0.777356 43.6837 3.66194L12.4779 34.8677C9.59335 37.7523 3.16868 48.0667 5.52871 50.4705C5.87838 50.8202 6.44655 50.995 7.14578 50.995C7.18961 47.2364 12.172 39.4568 14.6196 37.0093Z" fill="#DDE0E0"/>
<path d="M15.3188 23.4605L20.2576 27.3065L32.8886 14.6756L32.7574 14.5444C32.4952 14.2822 30.0477 13.2769 26.726 12.0095C26.726 12.0096 15.3188 23.4605 15.3188 23.4605Z" fill="#C7CACA"/>
<path d="M28.7803 35.9168L43.9897 55.2783C44.8639 56.1525 46.2624 56.1962 47.224 55.4531L30.4411 34.256L28.7803 35.9168ZM21.7873 25.6022L0.459003 8.90674C-0.196614 9.8683 -0.109169 11.1794 0.721228 12.0098L20.1265 27.2193L21.7873 25.6022Z" fill="black"/>
<path d="M20.1264 27.2193L21.7872 25.6022L16.9796 21.8435L15.3188 23.4606L20.1264 27.2193Z" fill="#A3A3A3"/>
</g>
<defs>
<clipPath id="clip0">
<rect width="56" height="56" fill="white"/>
</clipPath>
</defs>
</svg>
