<svg width="59" height="59" viewBox="0 0 59 59" fill="none" xmlns="http://www.w3.org/2000/svg">
<g clip-path="url(#clip0)">
<path d="M4 51.5C3.44772 51.5 3 51.0523 3 50.5V34.5C3 33.9477 3.44772 33.5 4 33.5C4.55228 33.5 5 33.9477 5 34.5V50.5C5 51.0523 4.55228 51.5 4 51.5Z" fill="#D7D7D7"/>
<path d="M45 55.5H35C32.7909 55.5 31 53.7092 31 51.5V46.26C31 45.7077 31.4477 45.26 32 45.26C32.5523 45.26 33 45.7077 33 46.26V51.5C33 52.6046 33.8954 53.5 35 53.5H45C45.5523 53.5 46 53.9477 46 54.5C46 55.0523 45.5523 55.5 45 55.5Z" fill="#D7D7D7"/>
<path d="M49.9999 27.5H44.1899C43.6377 27.5 43.1899 27.0523 43.1899 26.5C43.1899 25.9477 43.6377 25.5 44.1899 25.5H49.9999C50.5522 25.5 51 25.9477 51 26.5C51 27.0523 50.5522 27.5 49.9999 27.5Z" fill="#D7D7D7"/>
<path d="M19 12.28C18.4477 12.28 18 11.8323 18 11.28V7.5C18 5.29086 19.7909 3.5 22 3.5H35C35.5523 3.5 36 3.94772 36 4.5C36 5.05228 35.5523 5.5 35 5.5H22C20.8954 5.5 20 6.39543 20 7.5V11.28C20 11.8323 19.5523 12.28 19 12.28Z" fill="#D7D7D7"/>
<path d="M38 22.5C37.4477 22.5 37 22.0523 37 21.5V15.5C37 13.2909 38.7909 11.5 41 11.5H50C50.5523 11.5 51 11.9477 51 12.5C51 13.0523 50.5523 13.5 50 13.5H41C39.8954 13.5 39 14.3954 39 15.5V21.5C39 22.0523 38.5523 22.5 38 22.5Z" fill="#D7D7D7"/>
<path d="M45 31.8469C45.005 33.4856 44.3947 35.0665 43.29 36.2769V36.2869C43.2913 36.2979 43.2877 36.3089 43.28 36.3169C43.082 37.3925 42.6889 38.4228 42.12 39.3569C41.2631 40.8029 40.0291 41.9885 38.55 42.7869C38.55 42.7924 38.5545 42.7969 38.56 42.7969C38.9595 43.3328 39.3014 43.9093 39.58 44.5169C39.8219 45.0325 40.029 45.5637 40.2 46.1069C40.2861 46.3648 40.33 46.635 40.33 46.9069C40.3294 47.9481 39.7077 48.8885 38.75 49.2969C37.6694 49.7373 36.4279 49.4209 35.69 48.5169C34.8682 47.5577 33.7944 46.8475 32.59 46.4669C29.94 45.5769 28.55 44.6969 27.85 43.5169C27.5031 42.9201 27.2914 42.2545 27.23 41.5669H27.11C25.7824 41.559 24.4674 41.3082 23.23 40.8269C21.695 42.6193 19.3176 43.4525 16.9995 43.0103C14.6814 42.5682 12.7775 40.9185 12.01 38.6869H12C11.3725 38.9254 10.7173 39.0833 10.05 39.1569C9.67608 39.2137 9.2982 39.2405 8.92 39.2369C3.99133 39.2264 0.0010916 35.2286 0 30.2999C0.00570299 28.3767 0.62587 26.5057 1.77 24.9599C1.77 24.9499 1.76 24.9499 1.76 24.9399C1.62314 24.5338 1.55224 24.1084 1.55 23.6799C1.55251 21.8354 2.85235 20.2471 4.66 19.8799C4.67 19.8699 4.67 19.8699 4.68 19.8699C4.66357 19.7172 4.65689 19.5635 4.66 19.4099C4.65757 18.8838 4.73858 18.3607 4.9 17.8599C5.56419 15.769 7.50608 14.3489 9.7 14.3499C10.4597 14.3479 11.2094 14.5225 11.89 14.8599C13.004 12.9697 14.9038 11.6757 17.0707 11.3313C19.2375 10.987 21.4449 11.6282 23.09 13.0799C23.8525 11.8405 25.2464 11.1343 26.6968 11.2526C28.1471 11.3708 29.4082 12.2934 29.96 13.6399C30.3151 13.5964 30.6723 13.573 31.03 13.5699C35.8784 13.5765 39.9127 17.2978 40.31 22.1299H40.34C41.7215 22.1371 42.9961 22.8746 43.6908 24.0687C44.3855 25.2629 44.3966 26.7354 43.72 27.9399C44.5542 29.0715 45.0029 30.4411 45 31.8469Z" fill="#F1F1F1"/>
<path d="M12.55 34.1871C12.025 35.0559 11.7483 36.052 11.75 37.0671C11.7475 37.6169 11.8319 38.1636 12 38.6871C11.3725 38.9256 10.7173 39.0835 10.05 39.1571C9.84902 38.4787 9.74796 37.7746 9.75 37.0671C9.75 37.0071 9.76 36.9371 9.76 36.8771C7.58189 36.7654 5.87245 34.9681 5.87 32.7871C5.86989 32.2315 6.31449 31.778 6.87 31.7671C7.13397 31.7655 7.38773 31.869 7.57533 32.0547C7.76292 32.2404 7.86894 32.4931 7.87 32.7571V32.7871C7.88071 33.3582 8.11916 33.9013 8.53231 34.2956C8.94546 34.69 9.49906 34.9029 10.07 34.8871C10.2561 34.2784 10.5146 33.6942 10.84 33.1471C11.1251 32.6758 11.7376 32.5238 12.21 32.8071C12.6788 33.0988 12.8297 33.711 12.55 34.1871Z" fill="#434343"/>
<path d="M8.76004 21.2071C8.59198 21.3392 8.38378 21.4098 8.17004 21.4071C7.84999 21.4079 7.54887 21.2555 7.36004 20.9971C6.82117 20.2736 5.97216 19.8472 5.07004 19.8471C4.94004 19.8471 4.81004 19.8571 4.68004 19.8671C4.66361 19.7143 4.65693 19.5607 4.66004 19.4071C4.65761 18.881 4.73862 18.3578 4.90004 17.8571C4.95631 17.8488 5.01319 17.8454 5.07004 17.8471C6.61004 17.8433 8.05921 18.5753 8.97004 19.8171C9.12946 20.0282 9.19705 20.2947 9.15753 20.5563C9.11801 20.8179 8.97471 21.0525 8.76004 21.2071Z" fill="#434343"/>
<path d="M43.28 36.3169C43.082 37.3925 42.6889 38.4228 42.12 39.3569C41.2706 39.6808 40.3691 39.8468 39.46 39.8469C37.6158 39.847 35.8347 39.1751 34.45 37.9569C32.4603 38.8294 30.1367 37.9725 29.19 36.0169C29.0177 35.6956 29.0339 35.3059 29.2324 35.0001C29.4308 34.6942 29.78 34.5206 30.1437 34.547C30.5074 34.5733 30.8278 34.7956 30.98 35.1269C31.2628 35.6626 31.7594 36.0533 32.3465 36.202C32.9337 36.3507 33.5564 36.2434 34.06 35.9069C34.6238 35.5112 34.9596 34.8657 34.96 34.1769C34.9633 33.8505 34.8878 33.528 34.74 33.2369C34.5145 32.746 34.7197 32.1646 35.2035 31.9241C35.6873 31.6836 36.2747 31.8708 36.53 32.3469C36.8167 32.9141 36.9641 33.5414 36.96 34.1769C36.9589 35.0951 36.649 35.9862 36.08 36.7069C36.3417 36.9082 36.6231 37.0824 36.92 37.2269C39.0243 38.2675 41.552 37.9058 43.28 36.3169Z" fill="#434343"/>
<path d="M27.986 31.0251C29.5527 29.9467 30.6307 28.2937 30.986 26.4251C31.0604 26.0713 30.9381 25.7048 30.6659 25.4667C30.3938 25.2286 30.0143 25.1559 29.6734 25.2767C29.3326 25.3974 29.0835 25.6928 29.022 26.0492C28.651 28.0157 27.1975 29.602 25.2708 30.1429C23.3442 30.6839 21.2774 30.0861 19.937 28.6002C19.6973 28.3352 19.3344 28.2183 18.9851 28.2935C18.6358 28.3686 18.3532 28.6244 18.2436 28.9645C18.1341 29.3046 18.2143 29.6772 18.454 29.9421C19.5652 31.1647 21.0595 31.9723 22.691 32.2321C21.9843 33.4757 20.6623 34.242 19.232 34.2371C18.6797 34.2371 18.232 34.6849 18.232 35.2371C18.232 35.7894 18.6797 36.2371 19.232 36.2371C21.7659 36.2452 24.0268 34.6474 24.865 32.2561C25.9869 32.0943 27.0556 31.6728 27.986 31.0251Z" fill="#434343"/>
<path d="M39.58 44.5171C38.6951 44.9508 37.752 45.254 36.78 45.4171C36.72 45.4171 36.67 45.4271 36.61 45.4271C36.0811 45.4379 35.6353 45.0348 35.5929 44.5075C35.5505 43.9801 35.9262 43.511 36.45 43.4371C37.1797 43.3229 37.8899 43.1075 38.56 42.7971C38.9595 43.333 39.3014 43.9095 39.58 44.5171Z" fill="#434343"/>
<path d="M30.29 43.0571C29.4957 43.2981 28.6776 43.4523 27.85 43.5171C27.5031 42.9203 27.2915 42.2546 27.23 41.5671H27.16C27.2605 41.5707 27.361 41.564 27.46 41.5471C28.2227 41.4992 28.9775 41.365 29.71 41.1471C30.0587 41.017 30.4508 41.0913 30.7277 41.3399C31.0046 41.5885 31.1205 41.9703 31.0286 42.331C30.9367 42.6916 30.6522 42.9713 30.29 43.0571Z" fill="#434343"/>
<path d="M19.5 21.2371C19.5 20.6848 19.0523 20.2371 18.5 20.2371C15.4638 20.2404 13.0033 22.7009 13 25.7371C13 26.2893 13.4477 26.7371 14 26.7371C14.5523 26.7371 15 26.2893 15 25.7371C15 23.8041 16.567 22.2371 18.5 22.2371C18.7652 22.2371 19.0196 22.1317 19.2071 21.9442C19.3946 21.7566 19.5 21.5023 19.5 21.2371Z" fill="#434343"/>
<path d="M4 58.5C6.20914 58.5 8 56.7091 8 54.5C8 52.2909 6.20914 50.5 4 50.5C1.79086 50.5 0 52.2909 0 54.5C0 56.7091 1.79086 58.5 4 58.5Z" fill="white"/>
<path d="M49 58.5C51.2091 58.5 53 56.7091 53 54.5C53 52.2909 51.2091 50.5 49 50.5C46.7909 50.5 45 52.2909 45 54.5C45 56.7091 46.7909 58.5 49 58.5Z" fill="white"/>
<path d="M39 8.5C41.2091 8.5 43 6.70914 43 4.5C43 2.29086 41.2091 0.5 39 0.5C36.7909 0.5 35 2.29086 35 4.5C35 6.70914 36.7909 8.5 39 8.5Z" fill="white"/>
<path d="M55 16.5C57.2091 16.5 59 14.7091 59 12.5C59 10.2909 57.2091 8.5 55 8.5C52.7909 8.5 51 10.2909 51 12.5C51 14.7091 52.7909 16.5 55 16.5Z" fill="white"/>
<path d="M54 30.5C56.2091 30.5 58 28.7091 58 26.5C58 24.2909 56.2091 22.5 54 22.5C51.7909 22.5 50 24.2909 50 26.5C50 28.7091 51.7909 30.5 54 30.5Z" fill="white"/>
</g>
<defs>
<clipPath id="clip0">
<rect width="59" height="59" fill="white"/>
</clipPath>
</defs>
</svg>
