<svg width="72" height="72" viewBox="0 0 72 72" fill="none" xmlns="http://www.w3.org/2000/svg">
<g clip-path="url(#clip0)">
<path d="M56.9389 29.5403C56.9389 17.0185 46.6133 6.90833 34.0121 7.26C22.0425 7.59403 12.4178 17.4573 12.3606 29.4315C12.3315 35.5234 14.7468 41.0507 18.6821 45.0902C22.3 48.804 24.3613 53.7596 24.3613 58.9443V60.6505H44.9379V58.9443C44.9379 53.7844 46.9545 48.826 50.5668 45.1416C54.5083 41.1217 56.9389 35.6152 56.9389 29.5403Z" fill="#727272"/>
<path d="M34.6497 50.3913C46.1654 50.3913 55.5007 41.056 55.5007 29.5404C55.5007 18.0247 46.1654 8.68945 34.6497 8.68945C23.1341 8.68945 13.7988 18.0247 13.7988 29.5404C13.7988 41.056 23.1341 50.3913 34.6497 50.3913Z" fill="#F5F5F5"/>
<path d="M34.6499 24.9543C42.1194 24.9543 48.1747 21.4346 48.1747 17.0929C48.1747 12.7511 42.1194 9.23145 34.6499 9.23145C27.1803 9.23145 21.125 12.7511 21.125 17.0929C21.125 21.4346 27.1803 24.9543 34.6499 24.9543Z" fill="#CACACA"/>
<path d="M44.6203 9.60181C46.1235 12.6021 46.971 15.9881 46.971 19.5724C46.971 31.8824 36.9918 41.8616 24.6818 41.8616C21.0974 41.8616 17.7115 41.0143 14.7112 39.5109C18.3708 46.8148 25.9241 51.8295 34.6497 51.8295C46.9597 51.8295 56.9389 41.8503 56.9389 29.5403C56.9389 20.8146 51.9242 13.2614 44.6203 9.60181Z" fill="#C0C0C0"/>
<path d="M34.6499 55.0719C42.1194 55.0719 48.1747 49.0166 48.1747 41.5471C48.1747 34.0775 42.1194 28.0222 34.6499 28.0222C27.1803 28.0222 21.125 34.0775 21.125 41.5471C21.125 49.0166 27.1803 55.0719 34.6499 55.0719Z" fill="#D9D9D9"/>
<path d="M42.7645 70.1593C37.6331 72.6136 31.6666 72.6136 26.5351 70.1593C25.202 69.5217 24.3535 68.1752 24.3535 66.6975V55.5737H44.9459V66.6975C44.9459 68.1752 44.0975 69.5217 42.7645 70.1593Z" fill="url(#paint0_linear)"/>
<path d="M24.3535 57.9693L26.3952 60.011H44.9459V57.9519H24.3535V57.9693Z" fill="url(#paint1_linear)"/>
<path d="M24.3535 63.0435L26.3952 65.0852H44.9459V63.0261H24.3535V63.0435Z" fill="url(#paint2_linear)"/>
<path d="M24.5374 67.864C24.5719 67.9722 24.6112 68.0785 24.655 68.1826L26.3954 69.9231H43.1845C43.9395 69.4374 44.4935 68.7061 44.7624 67.864H24.5374Z" fill="url(#paint3_linear)"/>
<path d="M40.4503 41.5471H40.0322C38.3749 41.5471 37.0267 42.8954 37.0267 44.5526V45.5207H34.6497H32.2727V44.5526C32.2727 42.8954 30.9244 41.5471 29.2672 41.5471H28.849C27.1917 41.5471 25.8435 42.8954 25.8435 44.5526C25.8435 46.2099 27.1917 47.5581 28.849 47.5581H30.2352V55.3336H32.2727V47.5581H34.6497H37.0267V55.3336H39.064V47.5581H40.4502C42.1075 47.5581 43.4557 46.2099 43.4557 44.5526C43.4558 42.8954 42.1076 41.5471 40.4503 41.5471ZM30.2355 45.5207H28.8493C28.3155 45.5207 27.8812 45.0864 27.8812 44.5526C27.8812 44.0188 28.3155 43.5846 28.8493 43.5846H29.2675C29.8012 43.5846 30.2355 44.0188 30.2355 44.5526V45.5207ZM40.4503 45.5207H39.0641V44.5526C39.0641 44.0188 39.4984 43.5846 40.0322 43.5846H40.4503C40.9841 43.5846 41.4184 44.0188 41.4184 44.5526C41.4184 45.0864 40.9841 45.5207 40.4503 45.5207Z" fill="white"/>
<path d="M40.4503 41.5471H40.0322C38.3749 41.5471 37.0267 42.8954 37.0267 44.5526V45.5207H34.6497H32.2727V44.5526C32.2727 42.8954 30.9244 41.5471 29.2672 41.5471H28.849C27.1917 41.5471 25.8435 42.8954 25.8435 44.5526C25.8435 46.2099 27.1917 47.5581 28.849 47.5581H30.2352V55.3336H32.2727V47.5581H34.6497H37.0267V55.3336H39.064V47.5581H40.4502C42.1075 47.5581 43.4557 46.2099 43.4557 44.5526C43.4558 42.8954 42.1076 41.5471 40.4503 41.5471ZM30.2355 45.5207H28.8493C28.3155 45.5207 27.8812 45.0864 27.8812 44.5526C27.8812 44.0188 28.3155 43.5846 28.8493 43.5846H29.2675C29.8012 43.5846 30.2355 44.0188 30.2355 44.5526V45.5207ZM40.4503 45.5207H39.0641V44.5526C39.0641 44.0188 39.4984 43.5846 40.0322 43.5846H40.4503C40.9841 43.5846 41.4184 44.0188 41.4184 44.5526C41.4184 45.0864 40.9841 45.5207 40.4503 45.5207Z" fill="white"/>
<path d="M56.9386 29.5397C56.9386 30.8442 56.8257 32.1232 56.6111 33.3656L39.5753 16.2169L39.3226 16.0898C39.0812 15.9684 38.9824 15.6762 39.0996 15.4319C39.0967 15.4263 39.0939 15.4207 39.0911 15.415L36.9452 13.1449C36.7405 13.1406 36.5527 13.0122 36.485 12.8075L35.933 11.1458C35.8469 10.8861 35.988 10.6065 36.2478 10.5204L36.5217 10.4286C36.732 10.3595 36.8718 10.1576 36.8591 9.93453C36.8309 9.34724 36.876 8.75147 37.0017 8.16276C37.013 8.11335 37.0144 8.06253 37.0087 8.01312L36.9904 8.00324C36.8323 7.92418 36.7363 7.77171 36.7193 7.60794L36.468 7.48229C36.3876 7.44135 36.324 7.38065 36.2775 7.31006C37.3645 7.38912 38.4304 7.54582 39.4694 7.77453C40.4506 7.99053 41.4078 8.27147 42.3367 8.61312C42.2902 8.68088 42.2464 8.75288 42.2083 8.82912C41.7862 9.67194 42.125 10.6969 42.9678 11.119C43.8092 11.5411 44.8342 11.2009 45.2563 10.3595C45.3142 10.2437 45.3579 10.1251 45.3876 10.0051C46.2629 10.4865 47.1029 11.0258 47.9019 11.6174C53.3838 15.6776 56.9386 22.1943 56.9386 29.5397Z" fill="#929190"/>
<path d="M44.5462 17.359C44.1593 16.9722 43.5325 16.9722 43.1457 17.359L42.7377 17.7656C42.4243 18.0804 41.94 18.1467 41.5532 17.9279C41.0831 17.6611 40.596 17.4239 40.0949 17.2136L37.4379 14.6258C37.2826 14.2813 36.9367 14.0399 36.5344 14.0399H33.0374C32.4911 14.0399 32.0478 14.4832 32.0478 15.031V15.6366C32.0478 16.0856 31.7457 16.4794 31.3094 16.5924C30.1462 16.8973 29.0422 17.3491 28.0186 17.9279C27.6318 18.1467 27.1476 18.0804 26.8342 17.7656L26.4262 17.359C26.0393 16.9722 25.4125 16.9722 25.0257 17.359L22.5537 19.831C22.1669 20.2178 22.1669 20.8446 22.5537 21.2314L22.8826 21.5604C23.2045 21.8823 23.2652 22.382 23.0294 22.7717C22.397 23.8122 21.9 24.9416 21.5612 26.1387C21.4398 26.5623 21.0516 26.8531 20.6111 26.8531H20.2243C19.6779 26.8531 19.2346 27.2964 19.2346 27.8427V31.3397C19.2346 31.742 19.476 32.0879 19.8219 32.2418L21.7292 34.1957C22.013 35.0569 22.3772 35.8813 22.8177 36.6592C23.0379 37.046 22.973 37.5317 22.6567 37.8465L22.5537 37.951C22.1669 38.3364 22.1669 38.9646 22.5537 39.3514L43.853 60.6507H44.9386V58.9439C44.9386 53.7839 46.9546 48.8258 50.5673 45.1411C54.4624 41.1684 56.8807 35.7416 56.9358 29.7486L44.5462 17.359ZM34.7866 33.302C32.9047 33.302 31.3786 31.7759 31.3786 29.894C31.3786 28.0122 32.9047 26.4874 34.7866 26.4874C36.6685 26.4874 38.1932 28.0122 38.1932 29.894C38.1932 31.7759 36.6685 33.302 34.7866 33.302Z" fill="#858585"/>
<path d="M44.384 58.0499H24.9156C23.9403 58.0499 23.1499 57.2594 23.1499 56.2843C23.1499 55.309 23.9405 54.5186 24.9156 54.5186H44.384C45.3592 54.5186 46.1497 55.3091 46.1497 56.2843C46.1497 57.2594 45.3592 58.0499 44.384 58.0499Z" fill="url(#paint4_linear)"/>
<path d="M44.384 63.1278H24.9156C23.9403 63.1278 23.1499 62.3373 23.1499 61.3621C23.1499 60.3869 23.9405 59.5964 24.9156 59.5964H44.384C45.3592 59.5964 46.1497 60.387 46.1497 61.3621C46.1497 62.3373 45.3592 63.1278 44.384 63.1278Z" fill="url(#paint5_linear)"/>
<path d="M44.384 68.2055H24.9156C23.9403 68.2055 23.1499 67.4149 23.1499 66.4398C23.1499 65.4645 23.9405 64.6741 24.9156 64.6741H44.384C45.3592 64.6741 46.1497 65.4647 46.1497 66.4398C46.1497 67.415 45.3592 68.2055 44.384 68.2055Z" fill="url(#paint6_linear)"/>
<path d="M41.3539 70.7637C39.4808 70.1281 37.1616 69.7517 34.6497 69.7517C32.1379 69.7517 29.8185 70.1279 27.9456 70.7637C32.262 72.411 37.0375 72.411 41.3539 70.7637Z" fill="url(#paint7_linear)"/>
<path d="M9.25309 31.1911H6.29756C5.51361 31.1911 4.87817 30.5556 4.87817 29.7717C4.87817 28.9877 5.51361 28.3523 6.29756 28.3523H9.25295C10.0369 28.3523 10.6723 28.9879 10.6723 29.7717C10.6725 30.5556 10.0369 31.1911 9.25309 31.1911Z" fill="#CBC8C8"/>
<path d="M63.0017 31.1911H60.0463C59.2624 31.1911 58.627 30.5556 58.627 29.7717C58.627 28.9877 59.2624 28.3523 60.0463 28.3523H63.0017C63.7857 28.3523 64.4211 28.9879 64.4211 29.7717C64.4211 30.5556 63.7857 31.1911 63.0017 31.1911Z" fill="white"/>
<path d="M36.0692 4.37478V1.41939C36.0692 0.635576 35.4338 0 34.6499 0C33.8659 0 33.2305 0.635576 33.2305 1.41939V4.37478C33.2305 5.15873 33.8659 5.79417 34.6499 5.79417C35.4338 5.79431 36.0692 5.15873 36.0692 4.37478Z" fill="white"/>
<path d="M15.6879 12.817L13.5981 10.7273C13.0438 10.173 13.0438 9.27429 13.5981 8.71989C14.1523 8.16563 15.0511 8.16563 15.6055 8.71989L17.6953 10.8097C18.2495 11.364 18.2495 12.2627 17.6953 12.8171C17.1409 13.3714 16.2422 13.3714 15.6879 12.817Z" fill="white"/>
<path d="M15.6879 46.7261L13.5981 48.8159C13.0438 49.3702 13.0438 50.2689 13.5981 50.8233C14.1523 51.3777 15.0511 51.3777 15.6055 50.8233L17.6953 48.7335C18.2495 48.1792 18.2495 47.2805 17.6953 46.7261C17.1409 46.1717 16.2422 46.1717 15.6879 46.7261Z" fill="white"/>
<path d="M53.6116 46.7261L55.7014 48.8159C56.2558 49.3702 56.2558 50.2689 55.7014 50.8233C55.1471 51.3777 54.2484 51.3777 53.694 50.8233L51.6042 48.7335C51.0499 48.1792 51.0499 47.2805 51.6042 46.7261C52.1584 46.1717 53.0572 46.1717 53.6116 46.7261Z" fill="white"/>
<path d="M49.3471 26.8526H48.9605C48.5201 26.8526 48.1315 26.5626 48.0106 26.1391C47.6712 24.9423 47.1743 23.8116 46.5427 22.7715C46.3062 22.3827 46.3672 21.8825 46.6898 21.5599L47.0186 21.2309C47.4053 20.8443 47.4053 20.218 47.0186 19.8313L44.5462 17.3589C44.1595 16.9722 43.5322 16.9722 43.1455 17.3589L42.7378 17.7655C42.4247 18.0796 41.9393 18.1469 41.5526 17.9273C40.5302 17.3483 39.426 16.8965 38.2617 16.5929C37.8267 16.4794 37.524 16.0853 37.524 15.6367V15.0305C37.524 14.483 37.0806 14.0396 36.5342 14.0396H33.0373C32.4909 14.0396 32.0475 14.483 32.0475 15.0305V15.6367C32.0475 16.0853 31.745 16.4794 31.3099 16.5929C30.1457 16.8965 29.0413 17.3483 28.0189 17.9273C27.6322 18.1469 27.1469 18.0796 26.8337 17.7655L26.426 17.3589C26.0393 16.9722 25.4121 16.9722 25.0254 17.3589L22.553 19.8313C22.1663 20.218 22.1663 20.8443 22.553 21.2309L22.8818 21.5599C23.2044 21.8825 23.2653 22.3827 23.0289 22.7715C22.3974 23.8116 21.9003 24.9423 21.5609 26.1391C21.4401 26.5625 21.0513 26.8526 20.6111 26.8526H20.2244C19.6781 26.8526 19.2346 27.296 19.2346 27.8424V31.3393C19.2346 31.8868 19.6781 32.3291 20.2244 32.3291H20.4514C20.9105 32.3291 21.3078 32.6453 21.4149 33.0919C21.7165 34.3581 22.1925 35.5558 22.8177 36.6591C23.0373 37.0458 22.9721 37.5323 22.6569 37.8464L22.5528 37.9515C22.1661 38.337 22.1661 38.9644 22.5528 39.3511L25.0253 41.8235C25.4119 42.2102 26.0392 42.2102 26.4259 41.8235L26.4511 41.7982C26.7747 41.4747 27.2749 41.4158 27.6658 41.6532C28.7849 42.332 30.0089 42.8563 31.3077 43.1957C31.7438 43.3092 32.0475 43.7021 32.0475 44.1519C32.0475 44.4251 32.1589 44.672 32.3375 44.8517C32.5161 45.0315 32.7641 45.1417 33.0373 45.1417H36.5342C37.0806 45.1417 37.524 44.6983 37.524 44.1519C37.524 43.927 37.5997 43.7158 37.73 43.5477C37.8603 43.3795 38.0453 43.2525 38.2638 43.1957C39.5625 42.8563 40.7866 42.332 41.9057 41.6532C42.2966 41.4158 42.7967 41.4747 43.1204 41.7982L43.1457 41.8235C43.5324 42.2102 44.1596 42.2102 44.5463 41.8235L47.0187 39.3511C47.4054 38.9644 47.4054 38.3371 47.0187 37.9515L46.9147 37.8464C46.5994 37.5323 46.5343 37.0458 46.7539 36.6591C47.379 35.5558 47.855 34.3579 48.1566 33.0919C48.2637 32.6453 48.661 32.3291 49.1201 32.3291H49.3471C49.8935 32.3291 50.3369 31.8868 50.3369 31.3393V27.8424C50.3369 27.296 49.8935 26.8526 49.3471 26.8526ZM34.7859 33.3021C32.904 33.3021 31.3783 31.7764 31.3783 29.8945C31.3783 28.0126 32.904 26.4869 34.7859 26.4869C36.6678 26.4869 38.1935 28.0126 38.1935 29.8945C38.1935 31.7764 36.6678 33.3021 34.7859 33.3021Z" fill="#C9C9C9"/>
<path d="M34.786 20.6333C29.671 20.6333 25.5247 24.7795 25.5247 29.8946C25.5247 35.0097 29.6709 39.1559 34.786 39.1559C39.9011 39.1559 44.0473 35.0097 44.0473 29.8946C44.0473 24.7795 39.9009 20.6333 34.786 20.6333ZM34.786 33.3021C32.9041 33.3021 31.3784 31.7764 31.3784 29.8945C31.3784 28.0126 32.9041 26.4869 34.786 26.4869C36.6679 26.4869 38.1935 28.0126 38.1935 29.8945C38.1935 31.7764 36.6679 33.3021 34.786 33.3021Z" fill="#8D8D8D"/>
<path d="M50.5682 13.9392C50.2873 14.2398 50.0272 14.5566 49.7922 14.8893C49.6239 15.1282 49.3165 15.2241 49.0425 15.1251L48.6863 14.9976C48.3482 14.8761 47.9755 15.0518 47.854 15.3899L47.0771 17.5516C46.9706 17.848 47.0923 18.1704 47.3516 18.3274C47.4044 18.4113 48.1003 19.1095 48.1833 19.162C48.1832 19.1632 48.1833 19.1643 48.1833 19.1656C48.0993 19.9607 48.1206 20.7717 48.254 21.578C48.3008 21.8634 48.151 22.1447 47.8894 22.2681L47.6596 22.3763C47.3348 22.5294 47.1955 22.917 47.3485 23.2418L48.3279 25.3199C48.3846 25.4402 48.4736 25.5346 48.5793 25.5986L56.5703 33.5896C56.8113 32.2765 56.9387 30.9234 56.9387 29.5406C56.9389 23.4661 54.5089 17.9595 50.5682 13.9392Z" fill="white"/>
<path d="M64.9666 14.22L64.7367 14.3282C64.4751 14.4515 64.1629 14.3881 63.9724 14.1703C63.4355 13.554 62.8235 13.0214 62.1569 12.5801C61.9076 12.4152 61.8037 12.1009 61.905 11.8188L62.0084 11.5313C62.1299 11.1931 61.9544 10.821 61.6165 10.6994L59.4548 9.92255C59.1166 9.80099 58.7439 9.97676 58.6224 10.3149L58.4939 10.6708C58.3958 10.9452 58.1262 11.1211 57.8349 11.0988C57.0652 11.0411 56.2824 11.0819 55.5055 11.2274C55.2152 11.2818 54.925 11.1324 54.7993 10.8657L54.6295 10.5055C54.4762 10.1802 54.0885 10.0409 53.7638 10.1939L51.6857 11.1732C51.361 11.3263 51.2216 11.7139 51.375 12.0392L51.5448 12.3995C51.6704 12.6662 51.601 12.9851 51.3742 13.1743C50.7675 13.6808 50.2376 14.2585 49.7922 14.889C49.6239 15.1279 49.3166 15.2237 49.0426 15.1248L48.6864 14.9973C48.3483 14.8757 47.9756 15.0515 47.854 15.3896L47.0771 17.5513C46.9556 17.8894 47.1311 18.2616 47.469 18.3831L47.7566 18.4865C48.0387 18.5878 48.215 18.8679 48.1834 19.1652C48.0994 19.9603 48.1207 20.7714 48.2542 21.5777C48.301 21.8631 48.1512 22.1443 47.8896 22.2677L47.6598 22.376C47.335 22.529 47.1957 22.9167 47.3487 23.2414L48.3281 25.3195C48.4814 25.6448 48.8688 25.7836 49.1935 25.6305L49.3283 25.567C49.6012 25.4384 49.9258 25.5152 50.1145 25.7505C50.6483 26.4186 51.2667 26.9971 51.9471 27.4777C52.1859 27.646 52.2834 27.9533 52.1842 28.2283L52.1518 28.32C52.03 28.6574 52.2058 29.0302 52.5438 29.1518L54.7054 29.9287C55.0436 30.0502 55.4163 29.8745 55.5378 29.5363L55.5457 29.5143C55.6474 29.2314 55.9282 29.0563 56.2269 29.088C57.082 29.1779 57.9563 29.1467 58.8231 28.9846C59.1141 28.93 59.4045 29.0784 59.5306 29.3457C59.6071 29.5081 59.7425 29.6236 59.8989 29.6803C60.0553 29.7371 60.2336 29.7331 60.396 29.6568L62.4741 28.6774C62.7988 28.5244 62.9381 28.1367 62.7851 27.812C62.7221 27.6783 62.7079 27.5316 62.7382 27.3953C62.7686 27.2589 62.8429 27.1315 62.9569 27.0365C63.6337 26.4711 64.2142 25.8168 64.6892 25.0999C64.8549 24.8493 65.1686 24.7442 65.4517 24.8459L65.4737 24.8538C65.8118 24.9753 66.1845 24.7996 66.3061 24.4615L67.0829 22.2998C67.2045 21.9617 67.0287 21.5889 66.691 21.468L66.5998 21.4346C66.3245 21.3362 66.1496 21.0653 66.1718 20.7741C66.2343 19.9434 66.1817 19.0982 66.0063 18.2613C65.9449 17.9659 66.0925 17.6666 66.3654 17.538L66.5002 17.4745C66.8249 17.3215 66.9645 16.9344 66.8112 16.6091L65.8318 14.531C65.6789 14.2063 65.2913 14.0669 64.9666 14.22ZM58.1195 22.1308C57.0011 22.6578 55.6671 22.1784 55.1401 21.0601C54.6131 19.9417 55.0926 18.6077 56.2108 18.0807C57.3292 17.5537 58.6632 18.033 59.1902 19.1514C59.7172 20.2698 59.2378 21.6038 58.1195 22.1308Z" fill="#414141"/>
<path d="M55.1074 25.8318C58.2698 26.9682 61.7544 25.3261 62.8909 22.1637C64.0274 19.0014 62.3852 15.5167 59.2229 14.3802C56.0605 13.2438 52.5758 14.8859 51.4394 18.0483C50.3027 21.2106 51.9451 24.6953 55.1074 25.8318ZM57.9222 17.9991C59.0856 18.4173 59.6899 19.6995 59.2718 20.8629C58.8538 22.0263 57.5715 22.6307 56.4081 22.2126C55.2446 21.7944 54.6404 20.5122 55.0584 19.3488C55.4764 18.1854 56.7588 17.5811 57.9222 17.9991Z" fill="#C9C9C9"/>
<path d="M45.6408 2.39789L45.554 2.57083C45.4552 2.76777 45.2382 2.87662 45.0216 2.83554C44.4101 2.71864 43.7927 2.68716 43.1856 2.73601C42.9586 2.7545 42.7485 2.61488 42.6767 2.39817L42.6034 2.17723C42.5173 1.91746 42.2371 1.77685 41.9773 1.86297L40.3161 2.41398C40.0563 2.5001 39.9154 2.78076 40.0015 3.04052L40.0919 3.31426C40.1622 3.5249 40.0833 3.75714 39.8982 3.88081C39.4097 4.20819 38.9597 4.60067 38.5624 5.05342C38.414 5.22255 38.1698 5.26942 37.969 5.16876L37.6978 5.03267C37.4529 4.9097 37.155 5.00852 37.0323 5.25304L36.2472 6.81728C36.1245 7.06165 36.2234 7.35968 36.4683 7.4825L36.7395 7.6186C36.9403 7.7194 37.0485 7.94316 37.0017 8.16325C36.8762 8.75224 36.8303 9.34773 36.8598 9.93502C36.8712 10.1574 36.7322 10.3594 36.5213 10.4289L36.2478 10.5199C35.988 10.606 35.8471 10.8867 35.9333 11.1465L36.4841 12.8075C36.5702 13.0673 36.8505 13.2079 37.1102 13.1218L37.3312 13.0485C37.5479 12.9767 37.7853 13.0617 37.9062 13.2548C38.2298 13.7708 38.6239 14.247 39.083 14.6675C39.2454 14.8166 39.2877 15.0556 39.1889 15.2526L39.1021 15.4255C38.9794 15.6699 39.0782 15.9678 39.3226 16.0905L40.8869 16.8755C41.1318 16.9985 41.4291 16.8994 41.5518 16.655L41.6028 16.5535C41.7058 16.3481 41.9365 16.2415 42.1603 16.2938C42.7944 16.4431 43.4371 16.4992 44.071 16.4671C44.2932 16.4557 44.4962 16.594 44.5661 16.8057L44.5896 16.8758C44.6753 17.1354 44.956 17.2762 45.2157 17.1901L46.8768 16.6392C47.1366 16.5531 47.2775 16.2724 47.1914 16.0127L47.1857 15.9957C47.1136 15.7783 47.1996 15.5413 47.3935 15.4199C47.9484 15.0717 48.4579 14.6418 48.9012 14.137C49.0498 13.9674 49.2938 13.9199 49.4949 14.0208C49.6172 14.0821 49.7526 14.0877 49.8732 14.0482C49.9936 14.0087 50.0986 13.9224 50.16 13.8003L50.9451 12.2361C51.0678 11.9917 50.969 11.6937 50.7246 11.5711C50.6241 11.5206 50.5466 11.4394 50.5006 11.3434C50.4545 11.2474 50.4393 11.1361 50.463 11.0256C50.6028 10.3684 50.643 9.70307 50.5906 9.05013C50.5721 8.82198 50.7108 8.61149 50.9282 8.53935L50.9451 8.5337C51.2049 8.44758 51.3458 8.16692 51.2597 7.90716L50.7088 6.24608C50.6227 5.98631 50.342 5.84542 50.0827 5.93182L50.0124 5.95483C49.801 6.02528 49.5688 5.94523 49.4451 5.76015C49.0919 5.23271 48.663 4.75088 48.1642 4.33172C47.9885 4.18349 47.9362 3.93488 48.0393 3.72946L48.0902 3.62796C48.2129 3.38358 48.1145 3.08584 47.8697 2.96302L46.3058 2.17737C46.0614 2.05469 45.7635 2.15351 45.6408 2.39789ZM45.2565 10.3597C44.834 11.2015 43.8089 11.5415 42.9671 11.1189C42.1253 10.6964 41.7853 9.6713 42.2078 8.82947C42.6304 7.98763 43.6555 7.64768 44.4973 8.07022C45.3391 8.49276 45.6791 9.51784 45.2565 10.3597Z" fill="#757575"/>
<path d="M47.8753 11.6741C49.0238 9.38594 48.0999 6.60024 45.8118 5.45191C43.5236 4.30359 40.7379 5.2273 39.5895 7.51549C38.4411 9.80368 39.3649 12.5894 41.6531 13.7377C43.9413 14.886 46.7269 13.9623 47.8753 11.6741ZM42.2081 8.82984C42.6306 7.98801 43.6557 7.64806 44.4976 8.0706C45.3394 8.49314 45.6793 9.51822 45.2568 10.3601C44.8343 11.2019 43.8092 11.5418 42.9673 11.1193C42.1255 10.6966 41.7856 9.67168 42.2081 8.82984Z" fill="#AAAAAA"/>
</g>
<defs>
<linearGradient id="paint0_linear" x1="24.3535" y1="63.787" x2="44.9459" y2="63.787" gradientUnits="userSpaceOnUse">
<stop stop-color="#7E8595"/>
<stop offset="1" stop-color="#555A66"/>
</linearGradient>
<linearGradient id="paint1_linear" x1="34.6333" y1="59.8755" x2="34.6785" y2="57.4307" gradientUnits="userSpaceOnUse">
<stop stop-color="#555A66" stop-opacity="0"/>
<stop offset="1" stop-color="#555A66"/>
</linearGradient>
<linearGradient id="paint2_linear" x1="34.6333" y1="64.9498" x2="34.6785" y2="62.5049" gradientUnits="userSpaceOnUse">
<stop stop-color="#555A66" stop-opacity="0"/>
<stop offset="1" stop-color="#555A66"/>
</linearGradient>
<linearGradient id="paint3_linear" x1="34.6143" y1="69.7875" x2="34.6594" y2="67.3462" gradientUnits="userSpaceOnUse">
<stop stop-color="#555A66" stop-opacity="0"/>
<stop offset="1" stop-color="#555A66"/>
</linearGradient>
<linearGradient id="paint4_linear" x1="34.5965" y1="55.0298" x2="34.7278" y2="58.1176" gradientUnits="userSpaceOnUse">
<stop stop-color="#F9F7FC"/>
<stop offset="1" stop-color="#F0DDFC"/>
</linearGradient>
<linearGradient id="paint5_linear" x1="34.5965" y1="60.1076" x2="34.7278" y2="63.1955" gradientUnits="userSpaceOnUse">
<stop stop-color="#7E8595"/>
<stop offset="1" stop-color="#555A66"/>
</linearGradient>
<linearGradient id="paint6_linear" x1="34.5965" y1="65.1854" x2="34.7278" y2="68.2732" gradientUnits="userSpaceOnUse">
<stop stop-color="#7E8595"/>
<stop offset="1" stop-color="#555A66"/>
</linearGradient>
<linearGradient id="paint7_linear" x1="34.554" y1="70.0696" x2="35.0973" y2="74.0085" gradientUnits="userSpaceOnUse">
<stop stop-color="#F9F7FC"/>
<stop offset="1" stop-color="#F0DDFC"/>
</linearGradient>
<clipPath id="clip0">
<rect width="72" height="72" fill="white"/>
</clipPath>
</defs>
</svg>
