<svg width="20" height="20" viewBox="0 0 20 20" fill="none" xmlns="http://www.w3.org/2000/svg">
<g clip-path="url(#clip0)">
<path d="M20 10.0003C20 12.6714 18.9598 15.1828 17.0708 17.0715C15.1821 18.9602 12.6711 20.0003 10 20.0003C7.32895 20.0003 4.81789 18.9602 2.92922 17.0715C1.04016 15.1828 0 12.6714 0 10.0003C0 7.32929 1.04016 4.81823 2.92922 2.92956C4.81789 1.04089 7.32895 0.000732422 10 0.000732422C12.6711 0.000732422 15.1821 1.04089 17.0708 2.92956C18.9598 4.81823 20 7.32929 20 10.0003Z" fill="#4F296A"/>
<path d="M20 9.99973C20 12.6708 18.9598 15.1822 17.0708 17.0709C15.1821 18.9596 12.6711 19.9997 10 19.9997V0.00012207C12.6711 0.00012207 15.1821 1.04028 17.0708 2.92895C18.9598 4.81762 20 7.32868 20 9.99973Z" fill="#4F296A"/>
<path d="M15.6809 7.67932L10.0001 12.8023L8.97989 13.7221C8.96794 13.7332 8.95521 13.7423 8.94256 13.7528C8.9299 13.7632 8.91788 13.7743 8.90452 13.7841C8.89046 13.7945 8.87563 13.8037 8.86086 13.8135C8.8468 13.8226 8.83337 13.8324 8.81931 13.8409C8.80454 13.85 8.7883 13.8579 8.77283 13.8664C8.75877 13.8742 8.74464 13.8827 8.72987 13.8899C8.7137 13.8977 8.69676 13.9042 8.68059 13.9108C8.66582 13.9173 8.65169 13.9238 8.63693 13.929C8.61935 13.9355 8.6017 13.9407 8.58342 13.9466C8.56936 13.9511 8.55523 13.9564 8.54117 13.9603C8.52148 13.9655 8.50172 13.9694 8.48204 13.9733C8.46868 13.9759 8.45595 13.9798 8.4433 13.9818C8.42009 13.9863 8.39753 13.9883 8.37432 13.9909C8.36378 13.9922 8.35393 13.9941 8.34332 13.9954C8.3102 13.998 8.27645 14 8.24334 14C8.24264 14 8.24264 14 8.24264 14C8.20882 14 8.17507 13.998 8.14055 13.9948C8.13 13.9941 8.11946 13.9922 8.10884 13.9909C8.08564 13.9883 8.06236 13.9857 8.03916 13.9811C8.02651 13.9792 8.01378 13.9752 8.00112 13.9726C7.98074 13.9681 7.95957 13.9642 7.93989 13.959C7.92583 13.9551 7.91169 13.9498 7.89833 13.9453C7.87935 13.9394 7.861 13.9336 7.84272 13.927C7.82796 13.9212 7.81312 13.9147 7.79906 13.9082C7.78218 13.901 7.76454 13.8938 7.74837 13.886C7.7336 13.8788 7.71947 13.8704 7.7047 13.8618C7.68924 13.8534 7.673 13.8455 7.65753 13.8357C7.64347 13.8272 7.62933 13.8168 7.61527 13.807C7.60121 13.7971 7.58637 13.7874 7.57231 13.777C7.55825 13.7665 7.54553 13.7548 7.53217 13.7437C7.52021 13.7332 7.50749 13.7241 7.49624 13.713L4.30943 10.7604C3.89686 10.3788 3.89686 9.75903 4.30943 9.37671C4.722 8.9944 5.39092 8.99446 5.80285 9.37671L8.25311 11.6462L10.0001 10.0709L14.2071 6.27741C14.6254 5.90037 15.2942 5.90884 15.7006 6.29565C16.1076 6.68318 16.0984 7.30293 15.6809 7.67932Z" fill="white"/>
</g>
<defs>
<clipPath id="clip0">
<rect width="20" height="20" fill="white"/>
</clipPath>
</defs>
</svg>
