<svg width="18" height="17" viewBox="0 0 18 17" fill="none" xmlns="http://www.w3.org/2000/svg">
<path d="M13.6844 11.2204C13.0963 10.6733 12.3621 10.6733 11.7778 11.2204C11.3321 11.6369 10.8864 12.0533 10.4481 12.4769C10.3283 12.5934 10.2271 12.6181 10.0811 12.5404C9.79264 12.3922 9.4855 12.2722 9.20832 12.1098C7.91608 11.3439 6.83359 10.3592 5.87471 9.2509C5.39902 8.70029 4.97576 8.11086 4.67986 7.4473C4.61993 7.31318 4.63116 7.22494 4.74728 7.11553C5.19301 6.70963 5.6275 6.29314 6.06574 5.87666C6.67628 5.29781 6.67628 4.62014 6.06199 4.03777C5.71365 3.70599 5.36531 3.38128 5.01696 3.0495C4.65738 2.71066 4.30155 2.3683 3.93822 2.03299C3.35016 1.49297 2.61601 1.49297 2.0317 2.03652C1.58222 2.45301 1.15147 2.88008 0.694505 3.28951C0.271249 3.66717 0.057748 4.12954 0.0128005 4.66956C-0.0583665 5.54841 0.170117 6.37785 0.492241 7.18612C1.15147 8.85912 2.1553 10.3451 3.37263 11.7075C5.01696 13.5499 6.97967 15.0076 9.27574 16.0594C10.3095 16.5323 11.3808 16.8959 12.5457 16.9559C13.3472 16.9982 14.0439 16.8076 14.602 16.2182C14.9841 15.8158 15.4148 15.4488 15.8194 15.064C16.4187 14.4923 16.4224 13.8005 15.8269 13.2357C15.1152 12.5616 14.3998 11.891 13.6844 11.2204Z" fill="#C068FF"/>
<path d="M12.969 8.40767L14.3511 8.18531C14.1338 6.9888 13.5345 5.90523 12.6244 5.04402C11.6617 4.13693 10.4444 3.56515 9.10346 3.38867L8.90869 4.69813C9.94623 4.83578 10.8901 5.27697 11.6355 5.97935C12.3397 6.6429 12.8004 7.48293 12.969 8.40767Z" fill="#C068FF"/>
<path d="M15.1305 2.74598C13.5348 1.2424 11.516 0.292952 9.2873 0L9.09253 1.30946C11.0178 1.56358 12.7632 2.38597 14.1416 3.68131C15.4489 4.91312 16.3066 6.46964 16.6175 8.18147L17.9996 7.95911C17.6363 5.97551 16.6437 4.17544 15.1305 2.74598Z" fill="#C068FF"/>
</svg>
