<svg width="77" height="34" viewBox="0 0 77 34" fill="none" xmlns="http://www.w3.org/2000/svg">
<path d="M0.312 0.743998H3.72V30.024H13.512V33H0.312V0.743998ZM29.4304 7.944C29.4304 4.904 27.8464 3.384 24.6784 3.384C21.5424 3.384 19.9744 4.904 19.9744 7.944V25.8C19.9744 28.872 21.5424 30.408 24.6784 30.408C27.8464 30.408 29.4304 28.872 29.4304 25.8V7.944ZM16.5664 7.896C16.5664 5.624 17.2544 3.784 18.6304 2.376C20.0064 0.967999 22.0224 0.263998 24.6784 0.263998C27.3664 0.263998 29.3984 0.967999 30.7744 2.376C32.1504 3.784 32.8384 5.624 32.8384 7.896V25.896C32.8384 28.168 32.1504 30.008 30.7744 31.416C29.3984 32.792 27.3664 33.48 24.6784 33.48C21.9904 33.48 19.9584 32.792 18.5824 31.416C17.2384 30.008 16.5664 28.168 16.5664 25.896V7.896ZM38.5039 7.608C38.5039 5.4 39.2239 3.672 40.6639 2.424C42.1359 1.144 44.3919 0.503998 47.4319 0.503998C49.4799 0.503998 51.4159 0.775998 53.2399 1.32V4.584C51.3519 3.976 49.4159 3.672 47.4319 3.672C45.4479 3.672 44.0239 4.024 43.1599 4.728C42.3279 5.4 41.9119 6.424 41.9119 7.8V26.28C41.9119 28.872 43.4479 30.168 46.5199 30.168C48.5359 30.168 49.9759 29.832 50.8399 29.16V17.16H54.2479V31.32C51.9759 32.6 49.4959 33.24 46.8079 33.24C41.2719 33.24 38.5039 30.968 38.5039 26.424V7.608ZM72.8835 7.944C72.8835 4.904 71.2995 3.384 68.1315 3.384C64.9955 3.384 63.4275 4.904 63.4275 7.944V25.8C63.4275 28.872 64.9955 30.408 68.1315 30.408C71.2995 30.408 72.8835 28.872 72.8835 25.8V7.944ZM60.0195 7.896C60.0195 5.624 60.7075 3.784 62.0835 2.376C63.4595 0.967999 65.4755 0.263998 68.1315 0.263998C70.8195 0.263998 72.8515 0.967999 74.2275 2.376C75.6035 3.784 76.2915 5.624 76.2915 7.896V25.896C76.2915 28.168 75.6035 30.008 74.2275 31.416C72.8515 32.792 70.8195 33.48 68.1315 33.48C65.4435 33.48 63.4115 32.792 62.0355 31.416C60.6915 30.008 60.0195 28.168 60.0195 25.896V7.896Z" fill="black"/>
</svg>
